<svg id="e6beb43f-6cda-4f4c-ad53-286c194e3113" data-name="Layer 1" xmlns="http://www.w3.org/2000/svg" viewBox="0 0 300 300"><defs><style>.a815a6bc-334a-43b1-913f-f8fee07fb0be,.b138ab87-0c7f-4f87-9e54-5da92d4d285a{fill:#fff;}.b138ab87-0c7f-4f87-9e54-5da92d4d285a{stroke:#a1a1a1;stroke-miterlimit:10;stroke-width:2px;}.bbe9ef10-c5fc-4338-a6f7-c2fc6b18cbaa{fill:#3e3e3e;}.a8933e2b-c155-4821-8460-49fd2b3f617f{fill:#a1a1a1;}.fad09bfa-6325-4fcc-8288-cf87d9ab0467{fill:#eaeaea;}</style></defs><title>logos-contacto</title><path class="b138ab87-0c7f-4f87-9e54-5da92d4d285a" d="M235.16,147.9a84.7,84.7,0,1,0-84.7,84.69A84.7,84.7,0,0,0,235.16,147.9Z"/><path class="bbe9ef10-c5fc-4338-a6f7-c2fc6b18cbaa" d="M75.25,141.58l.64-3.61,13.39,2.36,1.44-8.2,3.35.59L92,144.54Z"/><path class="bbe9ef10-c5fc-4338-a6f7-c2fc6b18cbaa" d="M82.64,116l1.55-3,18.49,1.46-1.75,3.42-4.09-.39-3.23,6.28,2.69,3.11-1.72,3.33Zm10.66,1.14-5.92-.55,3.89,4.5Z"/><path class="bbe9ef10-c5fc-4338-a6f7-c2fc6b18cbaa" d="M101.63,90.9l3.28-2.22,7.67,3.49-.4-8.42,3.28-2.22L125,95.6l-3,2.05-6.23-9.19.18,8.65-.08,0L108,93.83l6.19,9.12-3,2Z"/><path class="bbe9ef10-c5fc-4338-a6f7-c2fc6b18cbaa" d="M131.24,75.7l3.29-.79,11,15-3.73.91-2.38-3.35-6.87,1.66-.59,4.06L128.3,94Zm6.11,8.82-3.45-4.84L133,85.56Z"/><path class="bbe9ef10-c5fc-4338-a6f7-c2fc6b18cbaa" d="M148.14,87.53l2.36-2.48a7.64,7.64,0,0,0,4.82,2.42c1.5.11,2.45-.43,2.53-1.43v0c.07-1-.47-1.47-3.2-2.4-3.29-1.12-5.39-2.22-5.14-5.59V78c.23-3.08,2.8-4.93,6.21-4.68a9.53,9.53,0,0,1,6,2.6l-2.11,2.67a7.81,7.81,0,0,0-4.21-2c-1.4-.11-2.19.49-2.25,1.32v0c-.09,1.11.6,1.53,3.43,2.49,3.31,1.14,5.12,2.51,4.91,5.47v0c-.24,3.36-2.9,5.07-6.5,4.81A10.58,10.58,0,0,1,148.14,87.53Z"/><path class="bbe9ef10-c5fc-4338-a6f7-c2fc6b18cbaa" d="M167.9,83.77l0,0a9,9,0,0,1,16.49-.07l-3.19,1.68A6.09,6.09,0,0,0,178,82a5,5,0,0,0-6.46,3.12l0,.05c-1.08,2.71-.14,5.69,2.52,6.75a6,6,0,0,0,4.82-.22l1.28,3.1a8.78,8.78,0,0,1-12.21-11Z"/><path class="bbe9ef10-c5fc-4338-a6f7-c2fc6b18cbaa" d="M198,90.27l2.57,2.21-5.73,17.65L192,107.62l1.33-3.88-5.36-4.61L184.3,101l-2.84-2.44Zm-3.59,10.11,1.91-5.63-5.27,2.74Z"/><path class="bbe9ef10-c5fc-4338-a6f7-c2fc6b18cbaa" d="M211.76,104.6l3.28,5.62c2.65,4.53,1.31,9.52-2.82,11.93l0,0c-4.14,2.41-9.17,1.15-11.82-3.38l-3.28-5.63Zm-8.49,12.49a4.82,4.82,0,0,0,6.93,1.79l0,0a4.83,4.83,0,0,0,1.88-6.93l-1.43-2.45-8.85,5.17Z"/><path class="bbe9ef10-c5fc-4338-a6f7-c2fc6b18cbaa" d="M223.89,131.49l.72,3.31-15.18,10.66-.83-3.75,3.4-2.31-1.51-6.9-4.06-.68-.8-3.66Zm-8.95,5.92,4.91-3.35-5.86-1Z"/><path class="bbe9ef10-c5fc-4338-a6f7-c2fc6b18cbaa" d="M97.26,191.29l1.58,1.78-1.79,1.58-1.58-1.78Z"/><path class="bbe9ef10-c5fc-4338-a6f7-c2fc6b18cbaa" d="M104.17,200.9v0c1.61-2.14,3.86-2.28,5.35-1.17a3,3,0,0,1,1.24,2.43l2.37-3.16,1.78,1.34L108.39,209l-1.79-1.33.69-.92a2.9,2.9,0,0,1-2.74-.43C103.08,205.26,102.56,203,104.17,200.9Zm4.85,3.63v0a1.93,1.93,0,1,0-3.06-2.29l0,0a1.94,1.94,0,1,0,3.07,2.29Z"/><path class="bbe9ef10-c5fc-4338-a6f7-c2fc6b18cbaa" d="M113.72,207.75v0a4,4,0,0,1,5.39-1.86c2.32,1.22,2.41,3.62,1.35,5.63-.08.16-.19.33-.3.51l-4.84-2.56a1.83,1.83,0,0,0,1,2.29,2.55,2.55,0,0,0,2.07.16l.6,1.62a3.91,3.91,0,0,1-3.54-.19A4,4,0,0,1,113.72,207.75Zm5.22,2a1.71,1.71,0,0,0-.68-2.28,1.77,1.77,0,0,0-2.3.7Z"/><path class="bbe9ef10-c5fc-4338-a6f7-c2fc6b18cbaa" d="M122.2,215.21l1.41-1.08a4.41,4.41,0,0,0,2,1.74c.6.22,1,.09,1.08-.25v0c.17-.46-.49-.87-1.22-1.42-.92-.68-1.92-1.6-1.39-3.06v0a2.58,2.58,0,0,1,3.57-1.42,5.41,5.41,0,0,1,2.45,1.87l-1.34,1.18A4.6,4.6,0,0,0,127,211.3c-.51-.18-.85-.05-1,.24v0c-.15.42.48.87,1.18,1.44.91.73,1.93,1.66,1.44,3v0c-.61,1.67-2.11,2-3.71,1.41A5.43,5.43,0,0,1,122.2,215.21Z"/><path class="bbe9ef10-c5fc-4338-a6f7-c2fc6b18cbaa" d="M132.16,215.54v0c.53-2.62,2.5-3.72,4.33-3.35a3,3,0,0,1,2.16,1.65l.78-3.87,2.19.44-2.15,10.69-2.18-.44.22-1.12a2.88,2.88,0,0,1-2.66.79C133.06,219.94,131.64,218.16,132.16,215.54Zm6,1.19v0a1.93,1.93,0,1,0-3.75-.75v0a1.94,1.94,0,1,0,3.76.75Z"/><path class="bbe9ef10-c5fc-4338-a6f7-c2fc6b18cbaa" d="M143.74,217.6v0a4,4,0,0,1,4-4c2.63.1,3.75,2.22,3.66,4.49,0,.18,0,.39,0,.6l-5.47-.22a1.82,1.82,0,0,0,1.86,1.64,2.54,2.54,0,0,0,1.94-.74l1.23,1.2a3.91,3.91,0,0,1-3.27,1.36A4,4,0,0,1,143.74,217.6Zm5.57-.45a1.7,1.7,0,0,0-1.59-1.77c-.92,0-1.55.61-1.76,1.63Z"/><path class="bbe9ef10-c5fc-4338-a6f7-c2fc6b18cbaa" d="M161.82,212.61l-1.69.76-.79-1.77,2.75-1.4,1.51-.27,1.85,10.36-2.2.39Z"/><path class="bbe9ef10-c5fc-4338-a6f7-c2fc6b18cbaa" d="M169.79,218.26l.59-2a3.36,3.36,0,0,0,2.42.16c1.2-.39,1.54-1.52,1.24-2.9a3.12,3.12,0,0,1-1.76,1.32c-2.12.69-3.87-.06-4.53-2.07v0a4.08,4.08,0,0,1,5.77-4.53c.93.48,1.74,1.41,2.37,3.37v0c1.05,3.22.27,5.91-2.5,6.81A4.89,4.89,0,0,1,169.79,218.26Zm3.45-7.4v0a1.61,1.61,0,0,0-2.21-1,1.55,1.55,0,0,0-1.17,2v0a1.59,1.59,0,0,0,2.19.94A1.57,1.57,0,0,0,173.24,210.86Z"/><path class="bbe9ef10-c5fc-4338-a6f7-c2fc6b18cbaa" d="M180,212.75v0a2.54,2.54,0,0,1,.32-3,2.49,2.49,0,0,1-2.2-1.44v0c-.73-1.42,0-3.2,1.9-4.19s3.78-.54,4.52.9v0a2.48,2.48,0,0,1-.12,2.62,2.6,2.6,0,0,1,2.6,1.44l0,0c.88,1.72-.1,3.5-2.12,4.54S180.79,214.37,180,212.75Zm2.74-6.56v0a1.5,1.5,0,0,0-2.62,1.33v0a1.33,1.33,0,0,0,1.9.47A1.31,1.31,0,0,0,182.7,206.19ZM185,210l0,0c-.36-.72-1.25-.8-2.16-.33s-1.36,1.23-1,1.95l0,0c.32.64,1.18.85,2.17.34S185.32,210.62,185,210Z"/><path class="bbe9ef10-c5fc-4338-a6f7-c2fc6b18cbaa" d="M191.22,208.64l-.07-2.11a3.31,3.31,0,0,0,2.34-.6c1-.75,1-1.93.29-3.15a3.08,3.08,0,0,1-1.27,1.81c-1.8,1.31-3.7,1.15-4.95-.57l0,0a4.08,4.08,0,0,1,4.08-6.09c1,.17,2.09.8,3.3,2.46l0,0c2,2.73,2.1,5.53-.26,7.25A4.94,4.94,0,0,1,191.22,208.64Zm1-8.1,0,0a1.61,1.61,0,0,0-2.4-.23,1.55,1.55,0,0,0-.47,2.31v0a1.59,1.59,0,0,0,2.37.21A1.55,1.55,0,0,0,192.19,200.54Z"/><path class="bbe9ef10-c5fc-4338-a6f7-c2fc6b18cbaa" d="M201.4,193.81l1.6-1.76,1.77,1.61-1.6,1.75Z"/><path class="a815a6bc-334a-43b1-913f-f8fee07fb0be" d="M150.46,198.74a50.85,50.85,0,1,1,50.85-50.84A50.9,50.9,0,0,1,150.46,198.74Z"/><path class="a8933e2b-c155-4821-8460-49fd2b3f617f" d="M150.46,98.05a49.85,49.85,0,1,1-49.84,49.85,49.9,49.9,0,0,1,49.84-49.85m0-2a51.85,51.85,0,1,0,51.85,51.85,51.84,51.84,0,0,0-51.85-51.85Z"/><path class="fad09bfa-6325-4fcc-8288-cf87d9ab0467" d="M115.57,157.83c-4.3,0-7.3-1.86-7.3-3.53s3-3.52,7.3-3.52h69.79c4.3,0,7.3,1.86,7.3,3.52s-3,3.53-7.3,3.53Z"/><path class="bbe9ef10-c5fc-4338-a6f7-c2fc6b18cbaa" d="M185.36,151.78c3.9,0,6.3,1.63,6.3,2.52s-2.4,2.53-6.3,2.53H115.57c-3.91,0-6.3-1.64-6.3-2.53s2.39-2.52,6.3-2.52h69.79m0-2H115.57c-4.58,0-8.3,2-8.3,4.52s3.72,4.53,8.3,4.53h69.79c4.58,0,8.3-2,8.3-4.53s-3.72-4.52-8.3-4.52Z"/><path class="fad09bfa-6325-4fcc-8288-cf87d9ab0467" d="M128.77,171.63c-11,0-16.39-1-16.67-9.52h41.31l23.89,6.59,4.12-6.59h7.41c-.28,8.56-5.64,9.52-16.67,9.52Z"/><path class="bbe9ef10-c5fc-4338-a6f7-c2fc6b18cbaa" d="M187.77,163.11c-.63,6.8-5.29,7.52-15.61,7.52H128.77c-10.33,0-15-.72-15.61-7.52h40.11l23,6.36,1.43.4.79-1.27,3.43-5.49h5.8m2.07-2h-9l-4,6.43-23.31-6.43H111.09v.27c0,10.65,7,11.25,17.68,11.25h43.39c10.65,0,17.68-.6,17.68-11.25v-.27Z"/><path class="a815a6bc-334a-43b1-913f-f8fee07fb0be" d="M133.32,157.71c-3.39,0-6-3-8.54-6-2-2.3-3.69-4.28-5.52-4.28h-8.38c-.81,0-1.37-.49-1.37-.93s.56-.92,1.37-.92h79.17c.81,0,1.37.49,1.37.92s-.56.93-1.37.93H156c-1.42,0-2.31,1.32-3.17,2.6-1.15,1.7-2,2.82-3.6,2.82a3.43,3.43,0,0,1-2.86-1,3.15,3.15,0,0,0-2.43-1c-1.2,0-2.15,1.14-3.24,2.46C139,155.28,137,157.71,133.32,157.71Z"/><path class="bbe9ef10-c5fc-4338-a6f7-c2fc6b18cbaa" d="M153.22,147.1a11.7,11.7,0,0,0-1.67,2.11c-1.08,1.59-1.59,2.16-2.36,2.16-1.21,0-1.43-.21-1.84-.59a4.6,4.6,0,0,0-3.45-1.43c-1.91,0-3.12,1.46-4.41,3-1.86,2.26-3.39,3.85-6.17,3.85s-5.09-2.77-7.41-5.47a24.27,24.27,0,0,0-3.57-3.64h30.88m36.83-3H110.87a2.46,2.46,0,1,0,0,4.85h8.39c1.14,0,2.79,1.91,4.38,3.76,2.63,3,5.6,6.5,9.68,6.5,4.4,0,6.76-2.85,8.49-4.93.74-.91,1.59-1.93,2.09-1.93a1.69,1.69,0,0,1,1.41.63,4.88,4.88,0,0,0,3.88,1.39c2.5,0,3.8-1.93,4.85-3.48.64-1,1.3-1.94,1.92-1.94h34.09a2.46,2.46,0,1,0,0-4.85Z"/><path class="fad09bfa-6325-4fcc-8288-cf87d9ab0467" d="M110.87,144.79h79.18a1.76,1.76,0,1,1,0,3.46H156c-2.42,0-3.09,5.43-6.77,5.43s-2.88-2-5.29-2-4.15,6.86-10.58,6.86-10.45-10.27-14.06-10.27h-8.39a1.76,1.76,0,1,1,0-3.46m0-1.38a3.16,3.16,0,1,0,0,6.23h8.39c.74,0,2.61,2.18,3.73,3.48,2.61,3,5.85,6.79,10.33,6.79,4.82,0,7.42-3.15,9.14-5.23A9.69,9.69,0,0,1,144,153c.28,0,.34.07.71.41a5.75,5.75,0,0,0,4.47,1.61c3,0,4.45-2.21,5.54-3.83a7.08,7.08,0,0,1,1.28-1.59h34a3.16,3.16,0,1,0,0-6.23Z"/><path class="bbe9ef10-c5fc-4338-a6f7-c2fc6b18cbaa" d="M184.65,152.47a.7.7,0,1,0-.7.7A.69.69,0,0,0,184.65,152.47Z"/><path class="bbe9ef10-c5fc-4338-a6f7-c2fc6b18cbaa" d="M180.19,154.86a1.69,1.69,0,1,0-1.69,1.69A1.69,1.69,0,0,0,180.19,154.86Z"/><path class="bbe9ef10-c5fc-4338-a6f7-c2fc6b18cbaa" d="M183.42,155.84a1,1,0,1,0-1.95,0,1,1,0,0,0,1.95,0Z"/><path class="bbe9ef10-c5fc-4338-a6f7-c2fc6b18cbaa" d="M117.66,156.35a.64.64,0,0,0,.63.64.64.64,0,1,0,0-1.28A.64.64,0,0,0,117.66,156.35Z"/><path class="bbe9ef10-c5fc-4338-a6f7-c2fc6b18cbaa" d="M116.76,153.12a.9.9,0,1,0,.9-.89A.89.89,0,0,0,116.76,153.12Z"/><path class="bbe9ef10-c5fc-4338-a6f7-c2fc6b18cbaa" d="M115.29,154.87a.84.84,0,1,0,.84-.84A.85.85,0,0,0,115.29,154.87Z"/><path class="fad09bfa-6325-4fcc-8288-cf87d9ab0467" d="M112.35,133.18c1.12-9.32,17.79-16.73,38.11-16.73,2.36,0,4.72.1,7.06.31a4.39,4.39,0,0,0-.48,1.4,4.91,4.91,0,0,0,2.7,5,3.89,3.89,0,0,0-.12.49,4.49,4.49,0,0,0,.93,3.49,7.36,7.36,0,0,0,5.22,2.59,6.74,6.74,0,0,0,.77,0,9.28,9.28,0,0,0,1.58-.14,6.88,6.88,0,0,0,5.73,3.47c.28,0,.56,0,.83,0a8.34,8.34,0,0,0,4.6-1.33,8.09,8.09,0,0,0,3.79,1.3c.27,0,.54,0,.81,0a8.42,8.42,0,0,0,4.44-1.23,7.57,7.57,0,0,1,.25,1.24Z"/><path class="bbe9ef10-c5fc-4338-a6f7-c2fc6b18cbaa" d="M150.46,117.45c1.89,0,3.78.06,5.66.2,0,.11-.05.23-.07.34a5.84,5.84,0,0,0,2.56,5.64,5.49,5.49,0,0,0,1.15,4.14,8.35,8.35,0,0,0,5.92,3,8.25,8.25,0,0,0,.86,0,9.24,9.24,0,0,0,1.05-.06,6.48,6.48,0,0,0,1.28,1.45h-55.3c2.27-8.17,18.24-14.73,36.89-14.73m0-2c-21.63,0-39.17,8.38-39.17,18.73h78.35a9.53,9.53,0,0,0-.86-3.9,6.82,6.82,0,0,1-4.9,1.89,5.79,5.79,0,0,1-.72,0,6.81,6.81,0,0,1-3.88-1.55,7.08,7.08,0,0,1-4.6,1.58c-.25,0-.49,0-.74,0-2.71-.24-4.74-1.77-5.18-3.65a8,8,0,0,1-2.22.32l-.68,0c-3.31-.3-5.66-2.51-5.25-4.93a3.36,3.36,0,0,1,.42-1.13c-2.05-.85-3.31-2.55-3-4.38a4,4,0,0,1,1.45-2.37,79.48,79.48,0,0,0-9-.5Z"/><path class="bbe9ef10-c5fc-4338-a6f7-c2fc6b18cbaa" d="M122.71,126.3a.74.74,0,0,1-.74.75.75.75,0,1,1,0-1.49A.74.74,0,0,1,122.71,126.3Z"/><path class="bbe9ef10-c5fc-4338-a6f7-c2fc6b18cbaa" d="M128.87,125a1.49,1.49,0,1,1-1.49-1.5A1.49,1.49,0,0,1,128.87,125Z"/><path class="bbe9ef10-c5fc-4338-a6f7-c2fc6b18cbaa" d="M119.73,129.33a1.5,1.5,0,1,1-1.5-1.49A1.5,1.5,0,0,1,119.73,129.33Z"/><path class="bbe9ef10-c5fc-4338-a6f7-c2fc6b18cbaa" d="M153.51,119.28a1.53,1.53,0,1,1-1.52-1.52A1.53,1.53,0,0,1,153.51,119.28Z"/><path class="bbe9ef10-c5fc-4338-a6f7-c2fc6b18cbaa" d="M119.12,167.51a.74.74,0,0,1,1,.09.75.75,0,0,1-1.15,1A.75.75,0,0,1,119.12,167.51Z"/><path class="bbe9ef10-c5fc-4338-a6f7-c2fc6b18cbaa" d="M114.18,163.61a1.5,1.5,0,0,1,2.11.18,1.49,1.49,0,1,1-2.11-.18Z"/><path class="bbe9ef10-c5fc-4338-a6f7-c2fc6b18cbaa" d="M123.35,167.85a1.49,1.49,0,1,1-.18,2.1A1.5,1.5,0,0,1,123.35,167.85Z"/><rect class="fad09bfa-6325-4fcc-8288-cf87d9ab0467" x="112.29" y="137.67" width="22.82" height="4"/><path class="bbe9ef10-c5fc-4338-a6f7-c2fc6b18cbaa" d="M134.11,138.67v2H113.29v-2h20.82m2-2H111.29v6h24.82v-6Z"/><rect class="fad09bfa-6325-4fcc-8288-cf87d9ab0467" x="139.06" y="137.67" width="22.82" height="4"/><path class="bbe9ef10-c5fc-4338-a6f7-c2fc6b18cbaa" d="M160.87,138.67v2H140.06v-2h20.81m2-2H138.06v6h24.81v-6Z"/><rect class="fad09bfa-6325-4fcc-8288-cf87d9ab0467" x="165.82" y="137.67" width="22.82" height="4"/><path class="bbe9ef10-c5fc-4338-a6f7-c2fc6b18cbaa" d="M187.64,138.67v2H166.82v-2h20.82m2-2H164.82v6h24.82v-6Z"/></svg>