<svg id="f1814abd-1eb7-47ef-b2e7-56be94250876" data-name="Layer 1" xmlns="http://www.w3.org/2000/svg" viewBox="0 0 300 300"><defs><style>.ff91eb1d-bb14-4818-a997-cbe873dffeb9{fill:#a1a1a1;}.ac747c28-66e6-4a8f-a6bc-5a16a772b8c3{fill:#3e3e3e;}</style></defs><title>logos-contacto</title><path class="ff91eb1d-bb14-4818-a997-cbe873dffeb9" d="M65.74,147.92c1,8.22,6.57,14.1,15.05,14.1a9.35,9.35,0,0,0,9.43-9.17c0-8.48-6.58-8.39-17-11.51-2.59-.77-16.78-2.5-16.78-18.68,0-5.79,4.85-17.21,19.46-17.21a18.79,18.79,0,0,1,12.8,5.27v-3.89h9.09v18.69H89.18a15.71,15.71,0,0,0-4.24-8.14,11.92,11.92,0,0,0-8.48-3.28c-5.1,0-8.73,3.11-8.73,8.47,0,6,8.47,7.1,17,9.61s16.78,5.62,16.78,19.11c0,11.68-8.39,19.38-19.81,19.38a23.62,23.62,0,0,1-15.57-5.28v3.89H57V147.92Z"/><path class="ff91eb1d-bb14-4818-a997-cbe873dffeb9" d="M99.44,169.28v-8.47h6.66v-45.5H99.44v-8.48H124v8.48h-6.66v15.74h22.32V115.31H133v-8.48h24.56v8.48H150.9v45.5h6.66v8.47H133v-8.47h6.66v-19.9H117.34v19.9H124v8.47Z"/><path class="ff91eb1d-bb14-4818-a997-cbe873dffeb9" d="M199.64,124.3V106.83h46.88V124.3h-10v-9H228.7v45.5h7.52v8.47H209.93v-8.47h7.52v-45.5h-7.87v9Z"/><path class="ac747c28-66e6-4a8f-a6bc-5a16a772b8c3" d="M148.77,138.14a32.83,32.83,0,0,1,65.65,0,32.62,32.62,0,0,1-32.87,32.53C158.72,170.67,148.77,153.19,148.77,138.14ZM160,139.35A20.79,20.79,0,0,0,181,160.29c12.88,0,22.23-9.86,22.23-22.58,0-12-9.17-21.88-21.28-21.88C168.14,115.83,160,126.12,160,139.35Z"/><path class="ac747c28-66e6-4a8f-a6bc-5a16a772b8c3" d="M191.14,137.51a9.55,9.55,0,1,0-9.55,9.55A9.54,9.54,0,0,0,191.14,137.51Z"/><path class="ac747c28-66e6-4a8f-a6bc-5a16a772b8c3" d="M128.38,183.85H129l4.45-5.85,1.27,1-4.3,5.45,5.05,6.09-1.27,1.07L129,185.22h-.57v6.07h-1.67v-13h1.67Z"/><path class="ac747c28-66e6-4a8f-a6bc-5a16a772b8c3" d="M145.28,187.76l-1.22,3.85-1.64-.6,4.08-12.69h2.14L152.72,191l-1.64.6-1.2-3.85Zm2.29-7.49-1.84,6h3.68Z"/><path class="ac747c28-66e6-4a8f-a6bc-5a16a772b8c3" d="M161.24,178.32h4.4c2.17,0,3.89,1,3.89,3.54a3.86,3.86,0,0,1-2.64,3.63l3.18,5.25-1.44.87-3.31-5.87h-2.41v5.55h-1.67Zm3.85,5.93a2.39,2.39,0,0,0,2.69-2.39,1.94,1.94,0,0,0-2.19-2h-2.68v4.43Z"/><path class="ac747c28-66e6-4a8f-a6bc-5a16a772b8c3" d="M180.13,187.76l-1.22,3.85-1.64-.6,4.08-12.69h2.14L187.57,191l-1.64.6-1.19-3.85Zm2.29-7.49-1.84,6h3.68Z"/><path class="ac747c28-66e6-4a8f-a6bc-5a16a772b8c3" d="M204.45,184.82c0,1-.07,6.69-4.6,6.69-2.09,0-4.6-1.49-4.6-6.69s2.46-6.72,4.6-6.72S204.45,179.59,204.45,184.82Zm-7.46,0c0,1.89.34,5.13,2.86,5.13s2.86-3.24,2.86-5.13-.35-5.15-2.86-5.15S197,182.9,197,184.82Z"/><path class="ac747c28-66e6-4a8f-a6bc-5a16a772b8c3" d="M215.51,183.85h.62l4.45-5.85,1.27,1-4.3,5.45,5,6.09-1.27,1.07-5.25-6.39h-.57v6.07h-1.67v-13h1.67Z"/><path class="ac747c28-66e6-4a8f-a6bc-5a16a772b8c3" d="M231.14,178.32h8.09v1.5h-6.42v3.88h5.3v1.49h-5.3v4.61h6.42v1.49h-8.09Z"/></svg>