<svg id="b38b97c3-7bbf-46af-a78a-99d0661a74a4" data-name="Layer 1" xmlns="http://www.w3.org/2000/svg" viewBox="0 0 300 300"><defs><style>.b5e3ba47-ad16-480f-8cd6-b6ff106810dc{font-size:46.73px;fill:#3e3e3e;letter-spacing:0.02em;}.b5e3ba47-ad16-480f-8cd6-b6ff106810dc,.eea7683a-0820-4f06-a3bd-5bddb31f715c{font-family:NautilusPompilius, Nautilus Pompilius;}.bff0ce79-889e-4517-b0d3-4c0f9442f14d{letter-spacing:-0.03em;}.abd2b95a-7e06-4eda-898d-859c2bcacbad{letter-spacing:0.02em;}.e8f5c3bf-7919-40dd-b50a-89be2bba53a7{letter-spacing:-0.01em;}.eea7683a-0820-4f06-a3bd-5bddb31f715c{font-size:21.96px;letter-spacing:0.02em;}.a1f1ab50-e0a3-441d-b150-cf37b085a14f,.eea7683a-0820-4f06-a3bd-5bddb31f715c{fill:#a1a1a1;}.bcf9fcad-c0fb-4df4-8a11-ccf43e2272e7{letter-spacing:-0.01em;}.bac1afc3-a972-489c-901d-d0ad0435e6d4{letter-spacing:-0.01em;}.e987cfc3-d1c0-4af3-b700-cfbddcf049ce{letter-spacing:0.02em;}.bd79c624-3cb9-4bd2-b4ed-115b06412d8c{letter-spacing:0em;}.a368c3ca-b6cc-44f9-b736-4543f4963b54{fill:#dadada;}</style></defs><title>logos-contacto</title><text class="b5e3ba47-ad16-480f-8cd6-b6ff106810dc" transform="translate(42.17 185.92) rotate(-8.39) scale(0.98 1)">El <tspan class="bff0ce79-889e-4517-b0d3-4c0f9442f14d" x="51.03" y="0">P</tspan><tspan class="abd2b95a-7e06-4eda-898d-859c2bcacbad" x="79.12" y="0">apill</tspan><tspan class="e8f5c3bf-7919-40dd-b50a-89be2bba53a7" x="172.3" y="0">o</tspan><tspan x="192.77" y="0">te</tspan></text><text class="eea7683a-0820-4f06-a3bd-5bddb31f715c" transform="matrix(0.96, -0.16, 0.16, 0.99, 63.95, 218.23)">R<tspan class="bcf9fcad-c0fb-4df4-8a11-ccf43e2272e7" x="15.46" y="0">e</tspan><tspan x="24.35" y="0">st</tspan><tspan class="bac1afc3-a972-489c-901d-d0ad0435e6d4" x="39.17" y="0">o</tspan><tspan class="e987cfc3-d1c0-4af3-b700-cfbddcf049ce" x="49.64" y="0">bar &amp; Take</tspan><tspan class="bd79c624-3cb9-4bd2-b4ed-115b06412d8c" x="153.17" y="0">w</tspan><tspan class="e987cfc3-d1c0-4af3-b700-cfbddcf049ce" x="167.86" y="0">ay</tspan></text><path class="a1f1ab50-e0a3-441d-b150-cf37b085a14f" d="M168.11,75.89a16.15,16.15,0,0,0-7.69,1.21,15.61,15.61,0,0,0-29.1-1.18,13.54,13.54,0,1,0-8.58,24,13.88,13.88,0,0,0,3.12-.36l3.83,29a1.44,1.44,0,0,0,2.22,1,11.6,11.6,0,0,1,6.31-2,36.38,36.38,0,0,1,5.95.38,7.68,7.68,0,0,0,3.94-.44,44.75,44.75,0,0,1,5.33-1.69,16.13,16.13,0,0,1,4.83-.33,3.46,3.46,0,0,0,3.63-2.75L165,108.09a16.63,16.63,0,0,0,1.75.1,16.18,16.18,0,0,0,1.39-32.3Z"/><path class="a368c3ca-b6cc-44f9-b736-4543f4963b54" d="M159.77,113.5l-28.4-2.2,1.37,10.31a10.37,10.37,0,0,1,5-1.4,32.37,32.37,0,0,1,5.95.43,6.9,6.9,0,0,0,3.93-.5,40.38,40.38,0,0,1,5.34-1.91,14.17,14.17,0,0,1,4.83-.38,3.1,3.1,0,0,0,1.48-.27Z"/></svg>