<svg id="bff17c67-7ee4-4bee-8bde-44fe92f27473" data-name="Layer 1" xmlns="http://www.w3.org/2000/svg" viewBox="0 0 300 300"><defs><style>.bc7338f6-1fdf-43b5-85a0-ea1b3f9569be{fill:#fff;}.a4b3e7f6-0f6f-4432-8b9c-8331b1481126{fill:#a1a1a1;}.ba6b44a6-dc97-4657-9d99-7c1431aa4788{fill:#3e3e3e;}</style></defs><title>logos-contacto</title><path class="bc7338f6-1fdf-43b5-85a0-ea1b3f9569be" d="M198.66,102.53c-4-4.87-14.7-14.76-29.75-3.22-19,14.55,4.52,48,25.65,32.24"/><path class="a4b3e7f6-0f6f-4432-8b9c-8331b1481126" d="M183,137.43c-12.66-.12-22.74-12.24-22.81-24.22h0a18.84,18.84,0,0,1,7.66-15.3h0c5.36-4.12,10.41-5.42,14.87-5.41h0c8.66,0,14.57,5.55,17.33,8.92h0a1.78,1.78,0,0,1-.26,2.49h0a1.76,1.76,0,0,1-2.48-.26h0C194.81,100.6,190,95,183,95h0a23.28,23.28,0,0,0-13.72,5h0c-4.47,3.45-5.58,8.52-5.6,13.16h0c0,5,1.2,10.25,4.76,14.17h0c3.57,3.94,9.06,7.52,14.17,7.52h0c3.37,0,7.25-2.09,10.87-4.77h0a1.77,1.77,0,0,1,2.47.36h0c.58.78.08,1.55-.7,2.14h0c-4.13,3.08-8.14,4.8-12.28,4.8h0Z"/><path class="a4b3e7f6-0f6f-4432-8b9c-8331b1481126" d="M187.17,113.18s3.89-4.37-2.94-9.23c0,0,7.75.13,8,3.92a5.64,5.64,0,0,1-5.09,5.31"/><path class="a4b3e7f6-0f6f-4432-8b9c-8331b1481126" d="M197,129.24a29.25,29.25,0,0,0-4.07-4.78c3,0,4.92,0,6.19-.38,1.86-.61,2.37,1.47,2.28,3.52-.15,3.78-1.43,5.83-3,6C198.43,133.64,198.65,132,197,129.24Z"/><path class="a4b3e7f6-0f6f-4432-8b9c-8331b1481126" d="M202.5,112.64c-.22-1,2.34,3.77,5.89,5.64s3.92,3.39,3.92,3.39c-.17.19-1.29,1-4.6.53-2.13-.31-5.94.92-6.63.46,0,0,2.45-5.15,1.42-10"/><path class="a4b3e7f6-0f6f-4432-8b9c-8331b1481126" d="M186.35,115.46s4.55,2.77,3.79,6.57-4.14,6.18-8.64,5.75c0,0,7.19-5.79,4.85-12.32"/><path class="bc7338f6-1fdf-43b5-85a0-ea1b3f9569be" d="M145.36,147.91c-31.63-2.42-26.5-51.33,2.21-49.54,22.78,1.43,24.7,18.88,24.45,26.45l-2.28,6.61Z"/><path class="a4b3e7f6-0f6f-4432-8b9c-8331b1481126" d="M145.18,150c-8-.59-13.81-4.09-17.74-9h0a27.32,27.32,0,0,1-6.1-17.14h0a30.85,30.85,0,0,1,6.31-19h0c4.72-5.28,10.23-8.09,18.39-8.58h0q.83,0,1.68.06h0c11.41.67,18.45,5.08,22.23,10.87h0c3.79,5.76,4.15,12.2,4.16,16.49h0c0,.43,0,.84,0,1.23h0a2.13,2.13,0,0,1-2.15,2.33h0a2.14,2.14,0,0,1-2-2.49h0c0-.33,0-.69,0-1.07h0c0-3.76.35-10-2.67-14.52h0c-3-4.51-8.92-9.12-19.88-9.4h0c-.47,0-.93,0-1.38,0h0c-6.39,0-12.89,3.83-16.32,8.12h0c-3.4,4.29-4.94,10.51-4.93,16.32h0a23.78,23.78,0,0,0,5.39,14.46h0c3.16,3.93,8.52,6.36,15.37,6.91h0a2.42,2.42,0,0,1,2.22,2.59h0a2.15,2.15,0,0,1-2.41,1.88h-.18Z"/><path class="a4b3e7f6-0f6f-4432-8b9c-8331b1481126" d="M153.13,124.83s7-.9,4.64-10.7c0,0,4.9,1.69,4.19,9.91,0,0-4.65,3.58-8.83.79"/><path class="a4b3e7f6-0f6f-4432-8b9c-8331b1481126" d="M142,155.57c1.6,1.06,7.22,0,10.35-3.29,1.69-1.79,5.44-6.82,3.27-7.74-1.48-.62-3.22-2.23-5.92-4.54a16.22,16.22,0,0,1-.09,7.56C148.59,152.29,142,155.57,142,155.57Z"/><path class="a4b3e7f6-0f6f-4432-8b9c-8331b1481126" d="M167.52,137c.63-1.13-.86,5.28.88,9.78s.88,6.18.88,6.18c-.31,0-1.64-.42-4.59-3.16-2-1.82-6.12-3.86-6.38-4.83,0,0,6.29-2.74,9.21-8"/><path class="a4b3e7f6-0f6f-4432-8b9c-8331b1481126" d="M168,133.83c1.49,3.93,10.57-8,10.57-8s-6.68,5.69-11.78,1.25c0,0-2.7-2.51-1.17.71a50.28,50.28,0,0,1,2.38,6"/><path class="a4b3e7f6-0f6f-4432-8b9c-8331b1481126" d="M150.63,126.82s1.94,6.12-1.75,9-8.65,2.33-12.4-1.62c0,0,11.11.44,14.15-7.34"/><path class="a4b3e7f6-0f6f-4432-8b9c-8331b1481126" d="M166.81,94.66a1.2,1.2,0,0,1-.38-1.66h0s.15-.25.41-.74h0a11.67,11.67,0,0,0,1-1.76h0A22.87,22.87,0,0,0,169.53,83h0a13.09,13.09,0,0,0-4.71-10.25h0c-3.65-3.09-10.64-5.85-21.23-6.16h0a1.2,1.2,0,0,1-1.08-1.32h0a1.21,1.21,0,0,1,1.33-1.08h0c11.07,1.12,18,3.86,22.2,7.41h0a14.87,14.87,0,0,1,5.56,11.75h0a22.66,22.66,0,0,1-3.13,10.91h0a1.2,1.2,0,0,1-1,.57h0a1.16,1.16,0,0,1-.64-.19Z"/><path class="a4b3e7f6-0f6f-4432-8b9c-8331b1481126" d="M161.81,96.93c-7.88-1-12.78-4.25-15.58-8.21h0a20.92,20.92,0,0,1-3.53-12.21h0a28.89,28.89,0,0,1,1-7.57h0a1.22,1.22,0,0,1,1.5-.81h0a1.21,1.21,0,0,1,.81,1.51h0a4.84,4.84,0,0,0-.77,1.93h0a27.61,27.61,0,0,0-.45,4.94h0c0,3.4.68,7.78,3.08,11.15h0c2.41,3.37,6.88,5.87,14.28,6.88h0a1.2,1.2,0,0,1,1,1.35h0a1.21,1.21,0,0,1-1.2,1h-.15Z"/><path class="a4b3e7f6-0f6f-4432-8b9c-8331b1481126" d="M162,88.2c-1.86-14-14.77-21-17.65-22h0c-.62-.23-1.3-.57-1.08-1.2h0a1.2,1.2,0,0,1,1.54-.73h0c3.54,1.28,17,8.83,19.24,24.23h0a1.21,1.21,0,0,1-1,1.36h-.17c-.59,0-.76-1.12-.85-1.72Z"/><path class="a4b3e7f6-0f6f-4432-8b9c-8331b1481126" d="M200.76,111.2c3.09,1.65,2.61-11.43,2.61-11.43s-1.41,7.88-7,7.88c0,0-3.06-.1-.35,1.08a41.37,41.37,0,0,1,4.77,2.47"/><path class="ba6b44a6-dc97-4657-9d99-7c1431aa4788" d="M70.1,209.24A5.73,5.73,0,0,1,70,210c0,.31-.09.64-.16,1s-.12.74-.2,1.13l-.2,1.08c-.06.33-.11.63-.15.88a4,4,0,0,0-.06.53c0,.18,0,.35,0,.5a2.23,2.23,0,0,0,.06.41.51.51,0,0,0,.15.26.4.4,0,0,0,.3.1,1.73,1.73,0,0,0,.53-.11,5.82,5.82,0,0,0,.66-.29c.23-.12.47-.26.71-.41s.48-.32.7-.49.42-.34.6-.51a3.53,3.53,0,0,0,.43-.47c0,.22,0,.42,0,.59v.51c0,.16,0,.33,0,.5v.57a5.31,5.31,0,0,1-.53.46,8,8,0,0,1-.71.49,9.48,9.48,0,0,1-.83.48c-.29.15-.58.28-.88.4a8,8,0,0,1-.88.27,3.3,3.3,0,0,1-.8.1,1.26,1.26,0,0,1-.64-.14,1.41,1.41,0,0,1-.46-.42,2.49,2.49,0,0,1-.33-.63c-.08-.25-.16-.52-.23-.82a7.6,7.6,0,0,1-.75.85,6,6,0,0,1-.8.67,4,4,0,0,1-.83.45,2.16,2.16,0,0,1-.81.16,1.57,1.57,0,0,1-.61-.11,1.17,1.17,0,0,1-.5-.36,1.7,1.7,0,0,1-.35-.67,3.47,3.47,0,0,1-.13-1,13.13,13.13,0,0,1,.18-1.93c.12-.78.27-1.68.45-2.68,0-.1,0-.23.07-.4s.09-.35.15-.55.14-.39.23-.6a2.77,2.77,0,0,1,.33-.55,1.63,1.63,0,0,1,.43-.4,1.12,1.12,0,0,1,.57-.17,2,2,0,0,1,.75.13c.15.08.22.17.22.28,0,.35-.12.74-.19,1.17s-.14.85-.21,1.29-.14.85-.21,1.26-.12.78-.17,1.1-.1.58-.13.78,0,.3,0,.3a1.87,1.87,0,0,0,0,.34,1.1,1.1,0,0,0,.11.29.51.51,0,0,0,.17.21.47.47,0,0,0,.26.08.94.94,0,0,0,.44-.12,1.42,1.42,0,0,0,.43-.32,2,2,0,0,0,.36-.52,2.82,2.82,0,0,0,.24-.71l1-5a.65.65,0,0,1,.4-.4,2,2,0,0,1,.79-.16,1.53,1.53,0,0,1,.8.18A.52.52,0,0,1,70.1,209.24Z"/><path class="ba6b44a6-dc97-4657-9d99-7c1431aa4788" d="M72.2,216c0-.44,0-.94.08-1.51s.12-1.14.2-1.73.17-1.15.27-1.7.19-1,.28-1.4a1.47,1.47,0,0,1,.42-.75,1.13,1.13,0,0,1,.84-.31.8.8,0,0,1,.74.33,1.54,1.54,0,0,1,.21.86,3.58,3.58,0,0,1,0,.4c0,.17,0,.35-.08.55l-.09.62c0,.22-.06.41-.09.59s-.06.34-.08.48a2.12,2.12,0,0,0,0,.27H75l.19-.35.29-.56.36-.66.36-.67c.11-.22.21-.4.31-.57l.2-.36a1.74,1.74,0,0,1,.72-.73,2,2,0,0,1,.9-.2.91.91,0,0,1,.78.41,2,2,0,0,1,.29,1.15,2.23,2.23,0,0,1,0,.36c0,.17-.07.38-.12.61s-.09.5-.15.78-.11.57-.15.87-.09.58-.12.87a7.77,7.77,0,0,0,0,.8,2.81,2.81,0,0,0,.15,1c.1.27.26.4.48.4a.82.82,0,0,0,.34-.09,3.46,3.46,0,0,0,.41-.23l.46-.33.45-.39c.35-.3.72-.65,1.1-1l.16,2.21-.49.37-.82.61a7.94,7.94,0,0,1-.87.55,5.27,5.27,0,0,1-1,.39,3.47,3.47,0,0,1-1,.15c-.36,0-.67-.26-.91-.78a5.47,5.47,0,0,1-.37-2.29,11.69,11.69,0,0,1,.08-1.27c0-.46.12-1,.2-1.48h-.16l-2.58,5.12a1.32,1.32,0,0,1-.44.56,1.21,1.21,0,0,1-.58.14,1.09,1.09,0,0,1-.65-.17,1.15,1.15,0,0,1-.38-.46,2.66,2.66,0,0,1-.17-.66A6.33,6.33,0,0,1,72.2,216Z"/><path class="a4b3e7f6-0f6f-4432-8b9c-8331b1481126" d="M86.7,216a9.56,9.56,0,0,1,0-1c0-.39.07-.79.13-1.22s.12-.86.2-1.3.15-.87.24-1.27.17-.77.25-1.1a7,7,0,0,1,.26-.83,1.35,1.35,0,0,1,.16-.34.63.63,0,0,1,.18-.21.62.62,0,0,1,.25-.09,2.09,2.09,0,0,1,.38,0,2,2,0,0,1,.4,0,.27.27,0,0,1,.21.11.54.54,0,0,1,.09.27c0,.12,0,.28,0,.49v.88c0,.34,0,.68,0,1h.11l.44-.88a6.37,6.37,0,0,1,.57-.91,3.59,3.59,0,0,1,.74-.72,1.67,1.67,0,0,1,1-.29.92.92,0,0,1,.36.07.87.87,0,0,1,.31.18.78.78,0,0,1,.21.29.8.8,0,0,1,.08.39,2.33,2.33,0,0,1,0,.46c0,.2-.06.41-.1.63s-.08.44-.11.64a2.72,2.72,0,0,0,0,.52,2,2,0,0,0,.07.59.9.9,0,0,0,.18.38.56.56,0,0,0,.26.2.73.73,0,0,0,.3.06,2.36,2.36,0,0,0,.91-.19,5.9,5.9,0,0,0,.87-.45,6.82,6.82,0,0,0,.9-.65L96.35,214l-.59.37a5.65,5.65,0,0,1-.69.39,5.12,5.12,0,0,1-.77.3,2.45,2.45,0,0,1-.81.13,2.12,2.12,0,0,1-1.19-.3,2.28,2.28,0,0,1-.72-.79,3.81,3.81,0,0,1-.39-1.09q-.14-.61-.21-1.23h-.16l-1.76,4.91a6.41,6.41,0,0,1-.26.64,2.45,2.45,0,0,1-.25.41.8.8,0,0,1-.28.22.83.83,0,0,1-.32.06,1,1,0,0,1-1-.63,2.29,2.29,0,0,1-.18-.66A6.34,6.34,0,0,1,86.7,216Z"/><path class="a4b3e7f6-0f6f-4432-8b9c-8331b1481126" d="M98.53,218.05a3.72,3.72,0,0,1-1.62-.33,3.21,3.21,0,0,1-1.15-.9,4,4,0,0,1-.7-1.31,5.4,5.4,0,0,1-.23-1.56,7,7,0,0,1,.11-1.17,6.58,6.58,0,0,1,.33-1.21,6.84,6.84,0,0,1,.55-1.12,4.59,4.59,0,0,1,.79-.95,3.66,3.66,0,0,1,1-.65,3.08,3.08,0,0,1,1.24-.24,2.84,2.84,0,0,1,1,.18,2.35,2.35,0,0,1,.82.5,2.13,2.13,0,0,1,.55.77,2.53,2.53,0,0,1,.2,1,2.71,2.71,0,0,1-.3,1.22,4.49,4.49,0,0,1-.84,1.16,5.66,5.66,0,0,1-1.26,1,7,7,0,0,1-1.59.66,2.8,2.8,0,0,0,.29.44,1.27,1.27,0,0,0,.29.28,1.23,1.23,0,0,0,.31.14,1.87,1.87,0,0,0,.35,0,3.58,3.58,0,0,0,1.24-.24,7.79,7.79,0,0,0,1.28-.59,11.81,11.81,0,0,0,1.17-.77,10.45,10.45,0,0,0,.94-.8l1.27,1.32a13,13,0,0,1-1.84,1.59c-.29.19-.59.39-.91.58a9,9,0,0,1-1,.51,8.42,8.42,0,0,1-1.11.35A5.12,5.12,0,0,1,98.53,218.05Zm-1.31-4.62a1.85,1.85,0,0,0,.78-.19,3.47,3.47,0,0,0,1.38-1.08,1.14,1.14,0,0,0,.24-.65,1.44,1.44,0,0,0-.16-.73.47.47,0,0,0-.4-.29,1.47,1.47,0,0,0-.72.16,1.43,1.43,0,0,0-.5.41,2,2,0,0,0-.33.57,3.83,3.83,0,0,0-.18.64,3.68,3.68,0,0,0-.09.63C97.23,213.11,97.22,213.28,97.22,213.43Z"/><path class="a4b3e7f6-0f6f-4432-8b9c-8331b1481126" d="M102.64,214.27c.36-.31.66-.57.89-.79s.43-.4.59-.57a5.29,5.29,0,0,0,.45-.53l.48-.63.67-.89c.26-.35.6-.79,1-1.31a3.17,3.17,0,0,1,.29-.35,2,2,0,0,1,.35-.3,2.1,2.1,0,0,1,.42-.22,1.72,1.72,0,0,1,.52-.08,2.28,2.28,0,0,1,.73.1.9.9,0,0,1,.37.26.55.55,0,0,1,.14.31c0,.1,0,.2,0,.28a1,1,0,0,1-.19.52,5.23,5.23,0,0,1-.41.55l-.43.49a.93.93,0,0,0-.23.33,3.09,3.09,0,0,0,0,.55,4.54,4.54,0,0,0,.12.5q.08.24.15.51a6.15,6.15,0,0,1,.16.62,7.81,7.81,0,0,1,.11.82c0,.31,0,.67,0,1.09a6.85,6.85,0,0,1,.76-.43l.85-.39c.3-.14.6-.29.91-.46a6.53,6.53,0,0,0,.94-.61v2.21a8.53,8.53,0,0,1-1.41.88,13.54,13.54,0,0,1-3.46,1.23,8.73,8.73,0,0,1-1.71.18,4.74,4.74,0,0,1-1.09-.11,2.74,2.74,0,0,1-.88-.34,1.84,1.84,0,0,1-.61-.6,2,2,0,0,1-.29-.91,1.26,1.26,0,0,1-.27,0h-.55a.43.43,0,0,1-.24-.07.39.39,0,0,1-.16-.21,1.07,1.07,0,0,1-.06-.41.88.88,0,0,1,.12-.44,1.6,1.6,0,0,1,.28-.35,2.61,2.61,0,0,1,.31-.28Zm1.26,1.26a.4.4,0,0,1,.26.15l.33.33a3,3,0,0,0,.43.32,1.07,1.07,0,0,0,.56.15,1.35,1.35,0,0,0,.64-.13,1.12,1.12,0,0,0,.4-.34,1.27,1.27,0,0,0,.2-.49,2.81,2.81,0,0,0,.06-.59,4.89,4.89,0,0,0,0-.54,4.51,4.51,0,0,0-.09-.53l-.12-.47c0-.15-.08-.27-.11-.38Z"/><path class="a4b3e7f6-0f6f-4432-8b9c-8331b1481126" d="M119.66,215.85l-1.68,1q-.74.42-1.32.69a7.66,7.66,0,0,1-1,.42,2.83,2.83,0,0,1-.81.13,2.07,2.07,0,0,1-1.32-.45,3.5,3.5,0,0,1-1-1.3,8.13,8.13,0,0,1-.57-2.07,17.07,17.07,0,0,1-.2-2.72c0-.4,0-.82,0-1.26s.08-.89.14-1.33a4.62,4.62,0,0,1-.46-.08l-.34-.07-.46-.07-.82-.1a1,1,0,0,1-.36-.11.52.52,0,0,1-.19-.2.61.61,0,0,1-.07-.24c0-.08,0-.15,0-.21a.33.33,0,0,1,.2-.3,1.42,1.42,0,0,1,.49-.15,4.43,4.43,0,0,1,.66,0h.69l.59,0,.36,0a21,21,0,0,1,.67-2.57,14.41,14.41,0,0,1,.92-2.22,6,6,0,0,1,1.1-1.55,1.8,1.8,0,0,1,1.27-.59,1.32,1.32,0,0,1,.77.24,1.89,1.89,0,0,1,.59.63,3.07,3.07,0,0,1,.38.92,4.34,4.34,0,0,1,.14,1.09,4.1,4.1,0,0,1-.14,1,7.19,7.19,0,0,1-.38,1.1,10.5,10.5,0,0,1-.55,1.12c-.22.38-.44.76-.68,1.14h.3l.48,0,.58,0,.61,0,.55,0,.43,0a.33.33,0,0,1,.28.2,1.09,1.09,0,0,1,.09.47.76.76,0,0,1-.2.56.55.55,0,0,1-.43.22h-3.78c-.19.26-.38.52-.58.77s-.37.49-.53.69c0,.41,0,.81-.07,1.2,0,.17,0,.35,0,.53s0,.36,0,.53,0,.35,0,.52v.45a3.26,3.26,0,0,0,.1.89,1.52,1.52,0,0,0,.28.6,1.06,1.06,0,0,0,.46.33,1.66,1.66,0,0,0,.61.11,2,2,0,0,0,.51-.1,6.83,6.83,0,0,0,.68-.27c.25-.12.51-.25.78-.41s.54-.33.81-.52A8.59,8.59,0,0,0,119,214a8,8,0,0,0,.66-.63Zm-3.15-12.47a2.09,2.09,0,0,0,0-.24,1,1,0,0,0-.07-.25.48.48,0,0,0-.15-.2.5.5,0,0,0-.29-.08c-.17,0-.34.16-.52.46a7.15,7.15,0,0,0-.5,1.15q-.24.71-.45,1.56c-.14.56-.27,1.11-.39,1.64l.29,0,.31,0c.2-.34.4-.7.61-1.09s.41-.77.58-1.15.31-.73.42-1.06A2.72,2.72,0,0,0,116.51,203.38Z"/><path class="a4b3e7f6-0f6f-4432-8b9c-8331b1481126" d="M125.4,210.68a5.53,5.53,0,0,1,.43,1.2,5.93,5.93,0,0,1,.14,1.22,5.18,5.18,0,0,1-.13,1.17,5.41,5.41,0,0,1-.36,1.14,5.63,5.63,0,0,1-.6,1,4.21,4.21,0,0,1-.79.84,4.14,4.14,0,0,1-1,.56,3.29,3.29,0,0,1-1.14.2,2.72,2.72,0,0,1-1.48-.38,3.18,3.18,0,0,1-1-1,4.31,4.31,0,0,1-.57-1.37,6.85,6.85,0,0,1-.18-1.56,6,6,0,0,1,.32-2,5.07,5.07,0,0,1,.93-1.64,4.38,4.38,0,0,1,1.48-1.09,4.66,4.66,0,0,1,2-.4,5.22,5.22,0,0,1,1.75.29,6.76,6.76,0,0,1,1.54.78,8.7,8.7,0,0,1,1.32,1.12,13.9,13.9,0,0,1,1.15,1.3l-.19,1.39a4.84,4.84,0,0,0-.71-.77q-.46-.42-1-.81l-1-.74c-.33-.24-.61-.43-.85-.59Zm-3,5.48a.89.89,0,0,0,.65-.34,3.2,3.2,0,0,0,.55-.85,6.2,6.2,0,0,0,.38-1.15,5.59,5.59,0,0,0,.14-1.19,4.46,4.46,0,0,0-.07-.84,2.48,2.48,0,0,0-.2-.68,1.26,1.26,0,0,0-.36-.45.83.83,0,0,0-.52-.17,1.11,1.11,0,0,0-.77.35,3.39,3.39,0,0,0-.64.88,5.32,5.32,0,0,0-.43,1.18,5.1,5.1,0,0,0-.16,1.25,3.81,3.81,0,0,0,.08.78,1.75,1.75,0,0,0,.25.64,1.29,1.29,0,0,0,.44.43A1.24,1.24,0,0,0,122.36,216.16Z"/><path class="a4b3e7f6-0f6f-4432-8b9c-8331b1481126" d="M128,216c0-.29,0-.63,0-1s.08-.79.13-1.22.12-.86.2-1.3.16-.87.24-1.27.17-.77.26-1.1a7.17,7.17,0,0,1,.25-.83,2.82,2.82,0,0,1,.16-.34.63.63,0,0,1,.18-.21.67.67,0,0,1,.26-.09,2,2,0,0,1,.38,0,2.1,2.1,0,0,1,.4,0,.31.31,0,0,1,.21.11.66.66,0,0,1,.08.27c0,.12,0,.28,0,.49v.88c0,.34,0,.68,0,1h.11c.13-.26.27-.56.44-.88a5,5,0,0,1,.57-.91,3.36,3.36,0,0,1,.74-.72,1.62,1.62,0,0,1,.95-.29.94.94,0,0,1,.37.07.87.87,0,0,1,.31.18.78.78,0,0,1,.21.29.93.93,0,0,1,.08.39,3.47,3.47,0,0,1,0,.46c0,.2-.07.41-.11.63s-.08.44-.11.64a3.89,3.89,0,0,0-.05.52,2.38,2.38,0,0,0,.07.59,1.22,1.22,0,0,0,.18.38.61.61,0,0,0,.26.2.8.8,0,0,0,.3.06,2.41,2.41,0,0,0,.92-.19,6.32,6.32,0,0,0,.86-.45,7.64,7.64,0,0,0,.91-.65L137.6,214l-.58.37a7.69,7.69,0,0,1-.69.39,5.57,5.57,0,0,1-.77.3,2.54,2.54,0,0,1-.81.13,2.16,2.16,0,0,1-1.2-.3,2.28,2.28,0,0,1-.72-.79,4.53,4.53,0,0,1-.39-1.09q-.12-.61-.21-1.23h-.15l-1.77,4.91a4.66,4.66,0,0,1-.26.64,1.93,1.93,0,0,1-.25.41.69.69,0,0,1-.27.22.88.88,0,0,1-.33.06,1.09,1.09,0,0,1-.65-.17,1.15,1.15,0,0,1-.38-.46,2.29,2.29,0,0,1-.17-.66A6.33,6.33,0,0,1,128,216Z"/><path class="a4b3e7f6-0f6f-4432-8b9c-8331b1481126" d="M146.76,215.64a9.32,9.32,0,0,1-.61.74,7.33,7.33,0,0,1-.85.81,6,6,0,0,1-1,.65,2.6,2.6,0,0,1-1.09.26,1.49,1.49,0,0,1-1.08-.42,3.31,3.31,0,0,1-.75-1.21,5.22,5.22,0,0,1-.58.56,5,5,0,0,1-1.6.9,3.11,3.11,0,0,1-.89.14,2.26,2.26,0,0,1-.92-.19,2.4,2.4,0,0,1-.79-.55,2.71,2.71,0,0,1-.56-.88,3.24,3.24,0,0,1-.2-1.16,6.23,6.23,0,0,1,.2-1.52,7.8,7.8,0,0,1,.58-1.52,8.35,8.35,0,0,1,.86-1.4,6.71,6.71,0,0,1,1.09-1.16,5.6,5.6,0,0,1,1.24-.78,3.33,3.33,0,0,1,1.34-.29.61.61,0,0,1,.35.09,1,1,0,0,1,.21.2l.16.22a.43.43,0,0,0,.2.16,1.05,1.05,0,0,0,.24.06l.25,0H143a1.18,1.18,0,0,1,.27,0,.45.45,0,0,1,.23.13.68.68,0,0,1,.15.27,1.63,1.63,0,0,1,0,.49,6.75,6.75,0,0,1-.09,1c-.07.39-.14.78-.22,1.19s-.15.8-.22,1.21a7.76,7.76,0,0,0-.1,1.14,2.37,2.37,0,0,0,.09.73.34.34,0,0,0,.36.26,1,1,0,0,0,.43-.11,2,2,0,0,0,.46-.27,3.85,3.85,0,0,0,.46-.38,6,6,0,0,0,.44-.43c.32-.36.65-.76,1-1.2Zm-8.41-.78a3.64,3.64,0,0,0,0,.48,1.52,1.52,0,0,0,.13.41.78.78,0,0,0,.23.3.59.59,0,0,0,.38.11.89.89,0,0,0,.66-.31,3.6,3.6,0,0,0,.51-.76,6,6,0,0,0,.35-.92,5.64,5.64,0,0,0,.17-.78l.6-2.9a1.75,1.75,0,0,0-.79.2,3.28,3.28,0,0,0-.72.55,4.55,4.55,0,0,0-.63.79,6.16,6.16,0,0,0-.81,1.91A4.42,4.42,0,0,0,138.35,214.86Zm3.32-8.73.16-.39c.08-.17.16-.37.26-.59s.19-.46.3-.71l.33-.76.84-1.91a.83.83,0,0,1,.39-.48,1,1,0,0,1,.54-.15,1.32,1.32,0,0,1,.51.1,1.24,1.24,0,0,1,.46.27,1.27,1.27,0,0,1,.33.43,1.08,1.08,0,0,1,.13.54,1.61,1.61,0,0,1-.36,1l-.43.57-.5.65-.54.67-.51.64-.45.54-.32.4a1.08,1.08,0,0,1-.34.28.8.8,0,0,1-.33.08.52.52,0,0,1-.4-.18.64.64,0,0,1-.17-.48,1.64,1.64,0,0,1,0-.22A1.44,1.44,0,0,1,141.67,206.13Z"/><path class="a4b3e7f6-0f6f-4432-8b9c-8331b1481126" d="M145.6,216c0-.44,0-.94.07-1.51s.12-1.14.2-1.73.17-1.15.27-1.7.19-1,.28-1.4a1.47,1.47,0,0,1,.42-.75,1.13,1.13,0,0,1,.84-.31.8.8,0,0,1,.74.33,1.54,1.54,0,0,1,.21.86,3.58,3.58,0,0,1,0,.4c0,.17,0,.35-.08.55l-.09.62c0,.22-.06.41-.09.59s-.06.34-.08.48a2.12,2.12,0,0,0,0,.27h.2l.19-.35.29-.56.36-.66.36-.67c.11-.22.22-.4.31-.57l.2-.36a1.74,1.74,0,0,1,.72-.73,2,2,0,0,1,.9-.2.91.91,0,0,1,.78.41,1.94,1.94,0,0,1,.29,1.15,2.23,2.23,0,0,1,0,.36c0,.17-.07.38-.12.61s-.09.5-.15.78-.1.57-.15.87-.08.58-.11.87a8,8,0,0,0,0,.8,2.81,2.81,0,0,0,.15,1c.11.27.27.4.48.4a.82.82,0,0,0,.34-.09,4.57,4.57,0,0,0,.42-.23l.45-.33.46-.39c.34-.3.71-.65,1.09-1l.17,2.21-.5.37-.82.61a7.94,7.94,0,0,1-.87.55,5.48,5.48,0,0,1-.94.39,3.58,3.58,0,0,1-1,.15c-.36,0-.66-.26-.91-.78a5.47,5.47,0,0,1-.37-2.29,11.69,11.69,0,0,1,.08-1.27c0-.46.12-1,.2-1.48h-.16l-2.58,5.12a1.32,1.32,0,0,1-.44.56,1.2,1.2,0,0,1-.57.14,1,1,0,0,1-1-.63,2.29,2.29,0,0,1-.18-.66A6.34,6.34,0,0,1,145.6,216Z"/><path class="ba6b44a6-dc97-4657-9d99-7c1431aa4788" d="M163.13,218.05a3.64,3.64,0,0,1-1.59-.33,3.29,3.29,0,0,1-1.15-.9,4,4,0,0,1-.7-1.3,5.2,5.2,0,0,1-.23-1.53,6.24,6.24,0,0,1,.12-1.19,6.53,6.53,0,0,1,.35-1.22,6.07,6.07,0,0,1,.57-1.14,4.55,4.55,0,0,1,.78-.95,3.82,3.82,0,0,1,1-.65,3.05,3.05,0,0,1,1.22-.24,3.09,3.09,0,0,1,1,.17,2.65,2.65,0,0,1,.82.48,2.07,2.07,0,0,1,.53.72,2.12,2.12,0,0,1,.19.91,2.48,2.48,0,0,1-.08.66,2.18,2.18,0,0,1-.26.58,1.53,1.53,0,0,1-.42.42,1.07,1.07,0,0,1-.55.16.64.64,0,0,1-.61-.25,1.41,1.41,0,0,1-.14-.68c0-.12,0-.24,0-.37s0-.25,0-.36a1.42,1.42,0,0,0,0-.39.21.21,0,0,0-.22-.16,1.27,1.27,0,0,0-.69.19,1.84,1.84,0,0,0-.49.51,2.92,2.92,0,0,0-.32.69,7.31,7.31,0,0,0-.18.78,4.84,4.84,0,0,0-.09.73c0,.23,0,.43,0,.59a4.91,4.91,0,0,0,.06.74,2.63,2.63,0,0,0,.24.7,1.55,1.55,0,0,0,.49.53,1.33,1.33,0,0,0,.78.21,2.26,2.26,0,0,0,1-.29,7.26,7.26,0,0,0,1.14-.73,10.14,10.14,0,0,0,1.1-1,11.1,11.1,0,0,0,.9-1l.68,1.14a12.87,12.87,0,0,1-1.6,1.88,7.65,7.65,0,0,1-.79.69,7.82,7.82,0,0,1-.9.6,5.57,5.57,0,0,1-1,.42A3.31,3.31,0,0,1,163.13,218.05Z"/><path class="ba6b44a6-dc97-4657-9d99-7c1431aa4788" d="M173.38,210.68a5.53,5.53,0,0,1,.43,1.2,5.93,5.93,0,0,1,.14,1.22,5.18,5.18,0,0,1-.13,1.17,4.91,4.91,0,0,1-.37,1.14,5.07,5.07,0,0,1-.59,1,4.21,4.21,0,0,1-.79.84,4.14,4.14,0,0,1-1,.56,3.33,3.33,0,0,1-1.14.2,2.72,2.72,0,0,1-1.48-.38,3.18,3.18,0,0,1-1-1,4.31,4.31,0,0,1-.57-1.37,6.85,6.85,0,0,1-.18-1.56,6,6,0,0,1,.32-2,5.07,5.07,0,0,1,.93-1.64,4.38,4.38,0,0,1,1.48-1.09,4.66,4.66,0,0,1,2-.4,5.27,5.27,0,0,1,1.75.29,6.76,6.76,0,0,1,1.54.78,8.7,8.7,0,0,1,1.32,1.12,15.5,15.5,0,0,1,1.15,1.3l-.19,1.39a4.84,4.84,0,0,0-.71-.77q-.47-.42-1-.81l-1-.74c-.33-.24-.61-.43-.85-.59Zm-3,5.48a.89.89,0,0,0,.65-.34,3.2,3.2,0,0,0,.55-.85,6.2,6.2,0,0,0,.38-1.15,5.59,5.59,0,0,0,.14-1.19,4.46,4.46,0,0,0-.07-.84,2.48,2.48,0,0,0-.2-.68,1.26,1.26,0,0,0-.36-.45.83.83,0,0,0-.52-.17,1.11,1.11,0,0,0-.77.35,3.17,3.17,0,0,0-.64.88,5.32,5.32,0,0,0-.43,1.18,5.1,5.1,0,0,0-.16,1.25,3.81,3.81,0,0,0,.08.78,1.75,1.75,0,0,0,.25.64,1.21,1.21,0,0,0,.44.43A1.24,1.24,0,0,0,170.34,216.16Z"/><path class="ba6b44a6-dc97-4657-9d99-7c1431aa4788" d="M175.93,216c0-.44,0-.94.08-1.51s.12-1.14.2-1.73.16-1.15.26-1.7.2-1,.29-1.4a1.47,1.47,0,0,1,.42-.75,1.1,1.1,0,0,1,.84-.31.81.81,0,0,1,.74.33,1.63,1.63,0,0,1,.2.86,3.58,3.58,0,0,1,0,.4c0,.17,0,.35-.07.55l-.09.62c0,.22-.07.41-.1.59s0,.34-.07.48a2.12,2.12,0,0,0,0,.27h.2l.18-.35.3-.56.36-.66.36-.67c.11-.22.21-.4.3-.57l.21-.36a1.74,1.74,0,0,1,.72-.73,2,2,0,0,1,.89-.2.94.94,0,0,1,.79.41,2,2,0,0,1,.29,1.15,2.64,2.64,0,0,1,0,.36c0,.17-.06.38-.11.61s-.1.5-.15.78-.11.57-.16.87-.08.58-.11.87a7.77,7.77,0,0,0,0,.8,2.81,2.81,0,0,0,.15,1c.1.27.26.4.48.4a.82.82,0,0,0,.34-.09l.41-.23q.23-.15.45-.33c.16-.13.31-.25.46-.39.35-.3.71-.65,1.09-1l.17,2.21-.49.37-.82.61a7.94,7.94,0,0,1-.87.55,5.58,5.58,0,0,1-.95.39,3.52,3.52,0,0,1-1,.15c-.36,0-.67-.26-.91-.78a5.47,5.47,0,0,1-.37-2.29,9.62,9.62,0,0,1,.08-1.27c0-.46.11-1,.19-1.48h-.16l-2.57,5.12a1.33,1.33,0,0,1-.45.56,1.15,1.15,0,0,1-.57.14,1.09,1.09,0,0,1-.65-.17,1.15,1.15,0,0,1-.38-.46,2.29,2.29,0,0,1-.18-.66C176,216.51,175.93,216.26,175.93,216Z"/><path class="ba6b44a6-dc97-4657-9d99-7c1431aa4788" d="M193.75,218.05a3.72,3.72,0,0,1-1.62-.33,3.21,3.21,0,0,1-1.15-.9,4,4,0,0,1-.7-1.31,5.4,5.4,0,0,1-.23-1.56,7,7,0,0,1,.11-1.17,6.58,6.58,0,0,1,.33-1.21,6.84,6.84,0,0,1,.55-1.12,4.59,4.59,0,0,1,.79-.95,3.66,3.66,0,0,1,1-.65,3.08,3.08,0,0,1,1.24-.24,2.84,2.84,0,0,1,1,.18,2.35,2.35,0,0,1,.82.5,2.13,2.13,0,0,1,.55.77,2.53,2.53,0,0,1,.2,1,2.71,2.71,0,0,1-.3,1.22,4.49,4.49,0,0,1-.84,1.16,5.66,5.66,0,0,1-1.26,1,7,7,0,0,1-1.59.66,2.8,2.8,0,0,0,.29.44,1.27,1.27,0,0,0,.29.28,1.23,1.23,0,0,0,.31.14,1.87,1.87,0,0,0,.35,0,3.58,3.58,0,0,0,1.24-.24,7.79,7.79,0,0,0,1.28-.59,11.81,11.81,0,0,0,1.17-.77,10.45,10.45,0,0,0,.94-.8l1.27,1.32a13,13,0,0,1-1.84,1.59c-.29.19-.59.39-.91.58a9,9,0,0,1-1,.51,8.42,8.42,0,0,1-1.11.35A5.12,5.12,0,0,1,193.75,218.05Zm-1.31-4.62a1.85,1.85,0,0,0,.78-.19,3.47,3.47,0,0,0,1.38-1.08,1.14,1.14,0,0,0,.24-.65,1.44,1.44,0,0,0-.16-.73.47.47,0,0,0-.4-.29,1.47,1.47,0,0,0-.72.16,1.43,1.43,0,0,0-.5.41,2,2,0,0,0-.33.57,3.83,3.83,0,0,0-.18.64,3.68,3.68,0,0,0-.09.63C192.45,213.11,192.44,213.28,192.44,213.43Z"/><path class="ba6b44a6-dc97-4657-9d99-7c1431aa4788" d="M198.17,216c0-.44,0-.94.08-1.51s.12-1.14.2-1.73.17-1.15.26-1.7.2-1,.29-1.4a1.47,1.47,0,0,1,.42-.75,1.13,1.13,0,0,1,.84-.31.81.81,0,0,1,.74.33,1.54,1.54,0,0,1,.21.86,3.58,3.58,0,0,1,0,.4c0,.17-.05.35-.08.55l-.09.62c0,.22-.07.41-.1.59s0,.34-.07.48a2.12,2.12,0,0,0,0,.27h.2l.19-.35.29-.56.36-.66.36-.67c.11-.22.21-.4.3-.57s.17-.28.21-.36a1.74,1.74,0,0,1,.72-.73,2,2,0,0,1,.9-.2.92.92,0,0,1,.78.41,2,2,0,0,1,.29,1.15c0,.07,0,.19,0,.36s-.07.38-.12.61-.1.5-.15.78-.11.57-.15.87-.09.58-.12.87a7.77,7.77,0,0,0,0,.8,2.81,2.81,0,0,0,.15,1c.1.27.26.4.48.4a.82.82,0,0,0,.34-.09,4.49,4.49,0,0,0,.41-.23l.46-.33.45-.39c.35-.3.72-.65,1.1-1l.16,2.21-.49.37L207,217a7.94,7.94,0,0,1-.87.55,5.27,5.27,0,0,1-.95.39,3.52,3.52,0,0,1-1,.15c-.36,0-.67-.26-.91-.78a5.47,5.47,0,0,1-.37-2.29,9.62,9.62,0,0,1,.08-1.27c.05-.46.12-1,.19-1.48H203l-2.58,5.12a1.26,1.26,0,0,1-.45.56,1.15,1.15,0,0,1-.57.14,1.09,1.09,0,0,1-.65-.17,1.15,1.15,0,0,1-.38-.46,2.66,2.66,0,0,1-.17-.66A6.33,6.33,0,0,1,198.17,216Z"/><path class="ba6b44a6-dc97-4657-9d99-7c1431aa4788" d="M206,218.05a5.27,5.27,0,0,1,0-.55c0-.27.07-.59.12-1s.11-.79.18-1.25.15-.93.24-1.42.18-1,.28-1.43.2-.93.3-1.34.21-.79.32-1.11a4.78,4.78,0,0,1,.32-.75,1,1,0,0,1,.33-.35,1.23,1.23,0,0,1,.4-.19,2.42,2.42,0,0,1,.47-.07l.48,0a.56.56,0,0,1,.49.21.74.74,0,0,1,.16.43,2,2,0,0,1-.06.38c0,.17-.08.35-.13.55s-.11.38-.16.56-.09.31-.12.39l-.55,1.58c.37-.06.72-.1,1.06-.13s.72-.06,1.13-.12a13.1,13.1,0,0,0,1.38-.32,16,16,0,0,0,1.83-.69v1.89a6.6,6.6,0,0,1-1.31.54,8.24,8.24,0,0,1-1.18.28,6.46,6.46,0,0,1-1.22.12,13.81,13.81,0,0,1,.44,1.33c.11.4.21.83.3,1.32a7.82,7.82,0,0,1,.13,1.45c0,.08,0,.28,0,.59s-.06.68-.12,1.1a9.36,9.36,0,0,1-.3,1.34,5.34,5.34,0,0,1-.55,1.29,3.15,3.15,0,0,1-.88,1,2.13,2.13,0,0,1-1.28.38,1.75,1.75,0,0,1-1.17-.4,2.83,2.83,0,0,1-.78-1.18,7.66,7.66,0,0,1-.44-1.88A21.19,21.19,0,0,1,206,218.05Zm2.19-12.22a1.55,1.55,0,0,1,.41-1,1.92,1.92,0,0,1,.59-.43,2.31,2.31,0,0,1,.93-.17,2.82,2.82,0,0,1,.65.08,1.51,1.51,0,0,1,.53.24,1.17,1.17,0,0,1,.36.43,1.39,1.39,0,0,1,.13.63,2.06,2.06,0,0,1-.11.65,1.53,1.53,0,0,1-.34.56,1.85,1.85,0,0,1-.6.4,2.24,2.24,0,0,1-.86.15,1.71,1.71,0,0,1-1.28-.41A1.43,1.43,0,0,1,208.23,205.83Zm.63,7.82c-.17,1-.32,2-.44,3.08a28,28,0,0,0-.17,3.21,5.62,5.62,0,0,0,.06.9,2.78,2.78,0,0,0,.18.59,1,1,0,0,0,.2.31.3.3,0,0,0,.19.09.57.57,0,0,0,.51-.35,2.84,2.84,0,0,0,.29-.88,9.16,9.16,0,0,0,.12-1.12c0-.41,0-.78,0-1.11a5.25,5.25,0,0,0,0-.65c0-.24-.07-.48-.11-.74s-.1-.52-.15-.78l-.18-.77C209.19,214.86,209,214.26,208.86,213.65Z"/><path class="ba6b44a6-dc97-4657-9d99-7c1431aa4788" d="M221.28,209.24a5.73,5.73,0,0,1-.06.72c0,.31-.09.64-.15,1s-.13.74-.2,1.13l-.2,1.08c-.07.33-.12.63-.16.88a4,4,0,0,0-.06.53c0,.18,0,.35,0,.5a2.23,2.23,0,0,0,.06.41.61.61,0,0,0,.16.26.38.38,0,0,0,.3.1,1.67,1.67,0,0,0,.52-.11,4.59,4.59,0,0,0,.66-.29c.24-.12.47-.26.72-.41s.47-.32.69-.49.42-.34.6-.51a3.68,3.68,0,0,0,.44-.47v.59c0,.18,0,.35,0,.51v.5c0,.17,0,.36,0,.57a5.54,5.54,0,0,1-.54.46,6.77,6.77,0,0,1-.71.49,9.29,9.29,0,0,1-.82.48c-.3.15-.59.28-.88.4a8,8,0,0,1-.88.27,3.44,3.44,0,0,1-.81.1,1.29,1.29,0,0,1-.64-.14,1.41,1.41,0,0,1-.46-.42,2.85,2.85,0,0,1-.32-.63,5.7,5.7,0,0,1-.23-.82,10.34,10.34,0,0,1-.75.85,6,6,0,0,1-.8.67,4.23,4.23,0,0,1-.83.45,2.2,2.2,0,0,1-.81.16,1.54,1.54,0,0,1-.61-.11,1.26,1.26,0,0,1-.51-.36,1.84,1.84,0,0,1-.35-.67,3.47,3.47,0,0,1-.13-1,13.13,13.13,0,0,1,.18-1.93c.13-.78.28-1.68.45-2.68,0-.1,0-.23.08-.4a5,5,0,0,1,.14-.55c.07-.19.14-.39.24-.6a3.3,3.3,0,0,1,.32-.55,1.53,1.53,0,0,1,.44-.4,1.08,1.08,0,0,1,.56-.17,2,2,0,0,1,.75.13c.15.08.23.17.23.28-.06.35-.12.74-.19,1.17l-.21,1.29q-.12.65-.21,1.26c-.07.41-.13.78-.18,1.1l-.12.78c0,.19-.05.3-.05.3a1.86,1.86,0,0,0,0,.34,1.1,1.1,0,0,0,.1.29.63.63,0,0,0,.18.21.45.45,0,0,0,.26.08.94.94,0,0,0,.44-.12,1.55,1.55,0,0,0,.43-.32,2.64,2.64,0,0,0,.36-.52,2.82,2.82,0,0,0,.23-.71l1-5c0-.16.16-.29.4-.4a2,2,0,0,1,.79-.16,1.55,1.55,0,0,1,.8.18A.53.53,0,0,1,221.28,209.24Z"/><path class="ba6b44a6-dc97-4657-9d99-7c1431aa4788" d="M223.39,216a14.32,14.32,0,0,1,.08-1.51c.05-.56.11-1.14.19-1.73s.17-1.15.27-1.7.19-1,.29-1.4a1.53,1.53,0,0,1,.41-.75,1.14,1.14,0,0,1,.85-.31.78.78,0,0,1,.73.33,1.54,1.54,0,0,1,.21.86,3.58,3.58,0,0,1,0,.4c0,.17,0,.35-.07.55s-.06.41-.1.62-.06.41-.09.59,0,.34-.07.48a2.12,2.12,0,0,0,0,.27h.19c0-.08.11-.19.19-.35s.18-.35.3-.56l.36-.66c.12-.24.24-.46.36-.67s.21-.4.3-.57l.21-.36a1.74,1.74,0,0,1,.72-.73,2,2,0,0,1,.89-.2.91.91,0,0,1,.78.41,1.94,1.94,0,0,1,.3,1.15,2.64,2.64,0,0,1,0,.36l-.11.61c-.05.24-.1.5-.16.78s-.1.57-.15.87-.08.58-.11.87a8,8,0,0,0-.05.8,2.79,2.79,0,0,0,.16,1c.1.27.26.4.47.4a.79.79,0,0,0,.34-.09,4.57,4.57,0,0,0,.42-.23q.23-.15.45-.33c.16-.13.31-.25.46-.39.35-.3.71-.65,1.09-1l.17,2.21-.49.37-.83.61a6.41,6.41,0,0,1-.87.55,5.17,5.17,0,0,1-.94.39,3.53,3.53,0,0,1-1,.15c-.36,0-.66-.26-.91-.78a5.64,5.64,0,0,1-.37-2.29,11.69,11.69,0,0,1,.08-1.27c.06-.46.12-1,.2-1.48h-.16l-2.58,5.12a1.32,1.32,0,0,1-.44.56,1.15,1.15,0,0,1-.57.14,1,1,0,0,1-1-.63,2.29,2.29,0,0,1-.18-.66A6.34,6.34,0,0,1,223.39,216Z"/><path class="ba6b44a6-dc97-4657-9d99-7c1431aa4788" d="M243.62,216.12a14.5,14.5,0,0,1-1.38,1l-.6.35c-.21.11-.41.21-.62.3a5.37,5.37,0,0,1-.59.22,1.86,1.86,0,0,1-.54.08,2.1,2.1,0,0,1-.41-.06,2.16,2.16,0,0,1-.59-.24,2.66,2.66,0,0,1-.64-.52,3.21,3.21,0,0,1-.56-.92,10.1,10.1,0,0,1-.77.68,5.87,5.87,0,0,1-.85.55,4.5,4.5,0,0,1-.88.38,2.82,2.82,0,0,1-.9.14,2.17,2.17,0,0,1-1.11-.27,2.5,2.5,0,0,1-.78-.74,3.44,3.44,0,0,1-.46-1,4.83,4.83,0,0,1-.15-1.21,5.08,5.08,0,0,1,.16-1.27,6.29,6.29,0,0,1,.47-1.25,5.81,5.81,0,0,1,.76-1.14,5.68,5.68,0,0,1,1-1,5.41,5.41,0,0,1,1.22-.69,4.71,4.71,0,0,1,1.41-.35,18.73,18.73,0,0,1,.22-2.49,20.06,20.06,0,0,1,.53-2.34,14.22,14.22,0,0,1,.76-2.06,8.65,8.65,0,0,1,1-1.63,4.69,4.69,0,0,1,1.11-1.08,2.2,2.2,0,0,1,1.22-.39,1.3,1.3,0,0,1,.79.24,1.77,1.77,0,0,1,.53.64,3.39,3.39,0,0,1,.29.93,6.38,6.38,0,0,1,.09,1.08c0,.23,0,.47,0,.71a15.33,15.33,0,0,1-.48,2.63,24.11,24.11,0,0,1-.8,2.4c-.31.79-.65,1.56-1,2.33s-.71,1.56-1.05,2.39a3.4,3.4,0,0,0-.1.33l-.09.43c0,.16-.06.32-.08.48a3.67,3.67,0,0,0,0,.46,4.91,4.91,0,0,0,0,.55,1.85,1.85,0,0,0,.11.45.75.75,0,0,0,.21.32.48.48,0,0,0,.33.12,1.26,1.26,0,0,0,.41-.07,3.67,3.67,0,0,0,.47-.2l.5-.29.48-.33c.37-.27.74-.57,1.14-.9Zm-6.77-5.51a4.17,4.17,0,0,0-1.16.83,5.61,5.61,0,0,0-.85,1.12,6,6,0,0,0-.51,1.21,3.93,3.93,0,0,0-.18,1.1,1.81,1.81,0,0,0,0,.4.88.88,0,0,0,.17.35.87.87,0,0,0,.33.26,1.48,1.48,0,0,0,.56.1.73.73,0,0,0,.35-.09,1.5,1.5,0,0,0,.33-.23,2.35,2.35,0,0,0,.3-.33,3.19,3.19,0,0,0,.26-.38,6.93,6.93,0,0,0,.51-1,2.83,2.83,0,0,1-.05-.44c0-.2,0-.42,0-.67s0-.5,0-.76,0-.5,0-.72,0-.4,0-.53A1.86,1.86,0,0,0,236.85,210.61Zm4.63-7.14c0-.46.05-.82.05-1.09a2.07,2.07,0,0,0-.09-.74.29.29,0,0,0-.27-.21.72.72,0,0,0-.57.4,4.44,4.44,0,0,0-.45,1,10.91,10.91,0,0,0-.35,1.37c-.1.5-.18,1-.24,1.45s-.12.88-.16,1.26-.07.64-.08.8c0,.32,0,.63-.07.93s0,.57,0,.81,0,.46,0,.65v.52c.37-.85.72-1.7,1-2.55.14-.36.27-.74.4-1.14s.26-.79.37-1.19.21-.8.29-1.19S241.44,203.82,241.48,203.47Z"/><path class="ba6b44a6-dc97-4657-9d99-7c1431aa4788" d="M249.06,216c-.24.21-.53.44-.88.69a9.8,9.8,0,0,1-1.14.68,8.46,8.46,0,0,1-1.25.52,4.07,4.07,0,0,1-1.2.2,2.27,2.27,0,0,1-.87-.14,1.37,1.37,0,0,1-.56-.4,1.45,1.45,0,0,1-.31-.62,3.49,3.49,0,0,1-.09-.82,8.08,8.08,0,0,1,.14-1.44c.09-.55.21-1.11.35-1.7s.28-1.17.44-1.76.29-1.12.4-1.61a.9.9,0,0,1,.28-.44,1.89,1.89,0,0,1,.47-.3,2.41,2.41,0,0,1,.54-.16,2.5,2.5,0,0,1,.51-.06.8.8,0,0,1,.56.15.58.58,0,0,1,.15.41,3.29,3.29,0,0,1-.1.63c-.07.27-.15.58-.25.92s-.2.72-.31,1.12-.22.79-.32,1.19-.18.78-.25,1.16a6.61,6.61,0,0,0-.09,1,2.2,2.2,0,0,0,.09.7.39.39,0,0,0,.41.26,1.69,1.69,0,0,0,.79-.24,8.52,8.52,0,0,0,.87-.6q.45-.34.87-.72c.28-.25.53-.47.75-.64Zm-4.4-10.13a1.55,1.55,0,0,1,.41-1,1.92,1.92,0,0,1,.59-.43,2.31,2.31,0,0,1,.93-.17,2.82,2.82,0,0,1,.65.08,1.51,1.51,0,0,1,.53.24,1.17,1.17,0,0,1,.36.43,1.54,1.54,0,0,1,.13.63,2.06,2.06,0,0,1-.11.65,1.53,1.53,0,0,1-.34.56,1.85,1.85,0,0,1-.6.4,2.24,2.24,0,0,1-.86.15,1.71,1.71,0,0,1-1.28-.41A1.43,1.43,0,0,1,244.66,205.83Z"/><path class="ba6b44a6-dc97-4657-9d99-7c1431aa4788" d="M258.66,215.64a9.32,9.32,0,0,1-.61.74,8.23,8.23,0,0,1-.85.81,6,6,0,0,1-1,.65,2.6,2.6,0,0,1-1.09.26,1.49,1.49,0,0,1-1.08-.42,3.31,3.31,0,0,1-.75-1.21,5.22,5.22,0,0,1-.58.56,5.86,5.86,0,0,1-.75.52,5.49,5.49,0,0,1-.86.38,3,3,0,0,1-.88.14,2.26,2.26,0,0,1-.92-.19,2.4,2.4,0,0,1-.79-.55,2.71,2.71,0,0,1-.56-.88,3.24,3.24,0,0,1-.2-1.16,6.23,6.23,0,0,1,.2-1.52,7.8,7.8,0,0,1,.58-1.52,8.35,8.35,0,0,1,.86-1.4,7.06,7.06,0,0,1,1.08-1.16,5.91,5.91,0,0,1,1.25-.78,3.32,3.32,0,0,1,1.33-.29.62.62,0,0,1,.36.09,1.34,1.34,0,0,1,.21.2l.16.22a.43.43,0,0,0,.2.16,1.05,1.05,0,0,0,.24.06l.25,0h.45a1.18,1.18,0,0,1,.27,0,.45.45,0,0,1,.23.13.68.68,0,0,1,.15.27,1.63,1.63,0,0,1,0,.49,6.75,6.75,0,0,1-.09,1c-.07.39-.14.78-.22,1.19s-.15.8-.22,1.21a7.76,7.76,0,0,0-.1,1.14,2.37,2.37,0,0,0,.09.73.34.34,0,0,0,.36.26,1.05,1.05,0,0,0,.43-.11,2,2,0,0,0,.46-.27,3.85,3.85,0,0,0,.46-.38,6,6,0,0,0,.44-.43c.32-.36.65-.76,1-1.2Zm-8.41-.78a3.64,3.64,0,0,0,0,.48,1.52,1.52,0,0,0,.13.41.69.69,0,0,0,.23.3.59.59,0,0,0,.38.11.89.89,0,0,0,.66-.31,3.6,3.6,0,0,0,.51-.76,6,6,0,0,0,.35-.92,5.64,5.64,0,0,0,.17-.78l.6-2.9a1.75,1.75,0,0,0-.79.2,3.06,3.06,0,0,0-.72.55,4.55,4.55,0,0,0-.63.79,6.16,6.16,0,0,0-.81,1.91A4.42,4.42,0,0,0,250.25,214.86Z"/><path class="ba6b44a6-dc97-4657-9d99-7c1431aa4788" d="M279,156.82c-1.44-2.2-8.57.55-13.41,2.27s-28.15,8.27-28.15,8.27c-1.33-1.52-5.07-5.18-9.22-4.25s.12,8.57.12,8.57c1.06,4.4,2.23,11.1.75,15.3s-4.93-10.45-6.82-19.29c-2.05-9.61-7.12-.59-8.35,1.16-5.16,7.33-16.73,19.09-16.73,19.09-4.08,4.2-6.44-.73-4.59-8.11a252.5,252.5,0,0,1,8-25s30.55-3.72,37.07-4.53,20.82-.88,23.07-2.5,4.41-5.09-3.63-3.83-50.73,5.65-54.57,6a85.33,85.33,0,0,1,4-10.91c2.15-4.5,2.59-6-.68-5.92s-3.57,3.42-4.44,6.14-4,11.37-4,11.37-12.57,2.42-18.48,4-7.29.16-5.24,3.55,5.43.81,10.58-.53S196,155.21,196,155.21a130.63,130.63,0,0,0-4.53,12.54c-2.69-.33-3.23.48-4.11,1.44-.29.32-9,3.38-8.65,2.06,1-4.39-.28-7.64-2.94-6.64s-1.31,6.45-2,8.57-8.83,14-10,15.55c0,0-1.1-6.45.9-10.12s5-7.7.72-8.68c-2.66-.61-3.51,3.45-4.34,5.13s-11.7,14-12.24,11.81S154,176,155.17,175.23s3.55-4.62,1.75-5.59c0,0-1.78-2.45-6.07,3.25-2.82,3.75-10.74,13.45-16.8,14.92a25,25,0,0,1,2.64-9.54c2.36-4.11,5.44-11.09,1.74-11.15-5.1-.08-15,9.43-15,9.43s7.32-11.18,2.21-11.3S109,170.88,102,176.68c0,0,12.4-15,15.06-20.06s3.66-8.07-5.27-6.1S85,159.22,68.75,165.38c0,0-25.92,10.74-33.44,10.82,0,0-6.93.23-8.29-.17s-6.31-.68-3,2.57,11.14,3.13,23.44-.76,60.45-23.39,65.25-23.26a117.39,117.39,0,0,1-8.17,11.87c-4.25,5.32-13,16.67-15.26,20.05s-4.39,3.85-2.66,6.18,2,2.86,9.93-5.22,21.2-14.42,23.4-15.7-11.39,16-8.26,19.45c3.29,3.64,13.38-12.16,21.49-16.05,0,0-4,10.08-3.46,14s3.07,7.67,14-2.6c0,0,.2,8.9,4.92,6.93s9.59-7.26,10.86-9.4c0,0-1.31,11,3.49,10.69,3.43-.22,5.9-7.83,10.35-13.24,0,0-2.58,13.69,2.48,12.76s-1.72-13.92,4.74-18.48c4-2.83,7.66-2.34,9.2-2.45a73,73,0,0,0-2.2,10.58c-.83,8.88,5.49,17.44,16.17,4.15l3.47-4.68s-2.53,10.72,3.58,11.71,10-15.1,10-15.1c1.73,6.94,5.47,15.27,8.15,15s4.73-12.63,4.73-12.63c2.4,4.25,6.18,10.11,10.52,9.16S239,170.7,239,170.7c4.54-1,28.62-8,34.09-9.29S280.44,159,279,156.82Zm-68,29.27c.24-6.55,7.16-13.55,7.16-13.55C218.86,178.15,210.8,192.65,211.05,186.09Zm30.7,0c-2.49.31-7.3-9-9.47-14.58l3.45-.37S242.89,185.94,241.75,186.09Z"/></svg>