<?xml version="1.0" encoding="utf-8"?>
<!-- Generator: Adobe Illustrator 24.0.3, SVG Export Plug-In . SVG Version: 6.00 Build 0)  -->
<svg version="1.1" id="Layer_1" xmlns="http://www.w3.org/2000/svg" xmlns:xlink="http://www.w3.org/1999/xlink" x="0px" y="0px"
	 viewBox="0 0 80 80" style="enable-background:new 0 0 80 80;" xml:space="preserve">
<style type="text/css">
	.st0{fill:#FF8D00;}
	.st1{fill:#FFFFFF;stroke:#FAAF41;stroke-width:0.5;stroke-miterlimit:10;}
	.st2{fill:#F9E12F;}
	.st3{fill:#FF9100;}
	.st4{fill:#D8B59A;}
	.st5{fill:#716558;}
	.st6{fill:#FAAF40;stroke:#F05A2A;stroke-width:0.75;stroke-miterlimit:10;}
	.st7{fill:#009345;}
	.st8{fill:#006838;}
	.st9{fill:#FAAF40;stroke:#F05A28;stroke-width:0.75;stroke-miterlimit:10;}
	.st10{fill:#A87C4F;}
	.st11{fill:#EE4036;stroke:#BE1E2D;stroke-width:0.5;stroke-miterlimit:10;}
</style>
<path class="st0" d="M41.5,0.4c-15.4,0-27.9,12.5-27.9,27.9c0,5.2,1.4,10.3,4.2,14.6l21.8,35.7c0.4,0.6,0.9,1,1.6,1.1
	c0.9,0.1,1.9-0.2,2.4-1.1l21.9-36c2.6-4.3,4-9.3,4-14.3C69.4,12.9,56.9,0.4,41.5,0.4z M41.5,42.2c-7.8,0-13.9-6.3-13.9-13.9
	c0-7.7,6.3-13.9,13.9-13.9s13.9,6.3,13.9,13.9C55.4,35.8,49.4,42.2,41.5,42.2z"/>
<g>
	<path class="st1" d="M64.2,28.1C64.2,15.6,54,5.5,41.5,5.5S18.9,15.6,18.9,28.1c0,12.5,10.1,22.7,22.7,22.7S64.2,40.6,64.2,28.1z"
		/>
	<g>
		<g>
			<path d="M21.4,26.4l0.2-1l3.6,0.6l0.4-2.2l0.9,0.2l-0.6,3.2L21.4,26.4z"/>
			<path d="M23.4,19.6l0.4-0.8l4.9,0.4l-0.5,0.9L27.2,20l-0.9,1.7l0.7,0.8l-0.5,0.9L23.4,19.6z M26.2,19.9l-1.6-0.1l1,1.2L26.2,19.9
				z"/>
			<path d="M28.5,12.9l0.9-0.6l2.1,0.9L31.3,11l0.9-0.6l2.6,3.8l-0.8,0.5l-1.7-2.5l0,2.3l0,0l-2.1-0.9l1.7,2.4L31,16.6L28.5,12.9z"
				/>
			<path d="M36.4,8.8l0.9-0.2l2.9,4l-1,0.2L38.6,12l-1.8,0.4l-0.2,1.1l-1,0.2L36.4,8.8z M38,11.2l-0.9-1.3l-0.2,1.6L38,11.2z"/>
			<path d="M40.9,12l0.6-0.7c0.4,0.4,0.8,0.6,1.3,0.6c0.4,0,0.7-0.1,0.7-0.4l0,0c0-0.3-0.1-0.4-0.9-0.6c-0.9-0.3-1.4-0.6-1.4-1.5
				l0,0c0.1-0.8,0.7-1.3,1.7-1.3c0.6,0,1.2,0.3,1.6,0.7L44,9.6c-0.4-0.3-0.8-0.5-1.1-0.5c-0.4,0-0.6,0.1-0.6,0.4l0,0
				c0,0.3,0.2,0.4,0.9,0.7c0.9,0.3,1.4,0.7,1.3,1.5l0,0c-0.1,0.9-0.8,1.4-1.7,1.3C42.1,12.8,41.4,12.5,40.9,12z"/>
			<path d="M46.2,11L46.2,11c0.5-1.2,1.8-1.8,3-1.3c0.8,0.3,1.1,0.8,1.4,1.3l-0.9,0.5c-0.2-0.4-0.5-0.7-0.9-0.9
				c-0.7-0.3-1.4,0.1-1.7,0.8l0,0c-0.3,0.7,0,1.5,0.7,1.8c0.5,0.2,0.8,0.1,1.3-0.1l0.3,0.8c-0.6,0.3-1.2,0.4-2,0.1
				C46.2,13.5,45.7,12.2,46.2,11z"/>
			<path d="M54.2,12.7l0.7,0.6L53.4,18l-0.8-0.7l0.4-1l-1.4-1.2l-1,0.5l-0.8-0.7L54.2,12.7z M53.3,15.4l0.5-1.5l-1.4,0.7L53.3,15.4z
				"/>
			<path d="M57.9,16.5l0.9,1.5c0.7,1.2,0.3,2.5-0.8,3.2l0,0c-1.1,0.6-2.5,0.3-3.2-0.9L54,18.8L57.9,16.5z M55.6,19.9
				c0.4,0.7,1.2,0.9,1.9,0.5l0,0c0.7-0.4,0.9-1.2,0.5-1.9l-0.4-0.7l-2.4,1.4L55.6,19.9z"/>
			<path d="M61.2,23.7l0.2,0.9l-4.1,2.9l-0.2-1l0.9-0.6L57.6,24l-1.1-0.2l-0.2-1L61.2,23.7z M58.8,25.3l1.3-0.9l-1.6-0.3L58.8,25.3z
				"/>
		</g>
	</g>
	<g>
		<g>
			<path d="M27.3,39.7l0.4,0.5l-0.5,0.4l-0.4-0.5L27.3,39.7z"/>
			<path d="M29.1,42.3L29.1,42.3c0.4-0.6,1-0.6,1.4-0.3c0.3,0.2,0.3,0.4,0.3,0.6l0.6-0.8l0.5,0.4l-1.7,2.3l-0.5-0.4l0.2-0.2
				c-0.2,0.1-0.5,0.1-0.7-0.1C28.8,43.5,28.7,42.9,29.1,42.3z M30.4,43.3L30.4,43.3c0.2-0.3,0.2-0.6,0-0.8c-0.2-0.2-0.6-0.1-0.8,0.2
				l0,0c-0.2,0.3-0.2,0.6,0.1,0.8C29.9,43.6,30.2,43.6,30.4,43.3z"/>
			<path d="M31.7,44.1L31.7,44.1c0.3-0.5,0.9-0.8,1.4-0.5c0.6,0.3,0.6,1,0.4,1.5c0,0-0.1,0.1-0.1,0.1l-1.3-0.7
				c-0.1,0.3,0,0.5,0.3,0.6c0.2,0.1,0.3,0.1,0.6,0l0.2,0.4c-0.3,0.1-0.6,0.1-0.9,0C31.6,45.3,31.4,44.7,31.7,44.1z M33.1,44.7
				c0.1-0.3,0-0.5-0.2-0.6c-0.2-0.1-0.4,0-0.6,0.2L33.1,44.7z"/>
			<path d="M34,46.1l0.4-0.3c0.2,0.2,0.4,0.4,0.5,0.5c0.2,0.1,0.3,0,0.3-0.1l0,0c0-0.1-0.1-0.2-0.3-0.4c-0.2-0.2-0.5-0.4-0.4-0.8
				l0,0c0.1-0.4,0.6-0.5,1-0.4c0.3,0.1,0.5,0.3,0.7,0.5l-0.4,0.3c-0.2-0.2-0.3-0.3-0.5-0.4c-0.1,0-0.2,0-0.3,0.1l0,0
				c0,0.1,0.1,0.2,0.3,0.4c0.2,0.2,0.5,0.4,0.4,0.8l0,0c-0.2,0.4-0.6,0.5-1,0.4C34.4,46.6,34.1,46.4,34,46.1z"/>
			<path d="M36.6,46.2L36.6,46.2c0.1-0.7,0.7-1,1.2-0.9c0.3,0.1,0.5,0.2,0.6,0.4l0.2-1l0.6,0.1l-0.6,2.9L38,47.6l0.1-0.3
				c-0.2,0.2-0.4,0.3-0.7,0.2C36.9,47.4,36.5,46.9,36.6,46.2z M38.2,46.5L38.2,46.5c0.1-0.4-0.1-0.6-0.4-0.7
				c-0.3-0.1-0.5,0.1-0.6,0.5l0,0c-0.1,0.3,0.1,0.6,0.4,0.7C37.9,47.1,38.1,46.9,38.2,46.5z"/>
			<path d="M39.7,46.8L39.7,46.8c0-0.6,0.5-1.1,1.1-1.1c0.7,0,1,0.6,1,1.2c0,0,0,0.1,0,0.2L40.3,47c0,0.3,0.2,0.4,0.5,0.4
				c0.2,0,0.3-0.1,0.5-0.2l0.3,0.3c-0.2,0.2-0.5,0.4-0.9,0.4C40.1,47.9,39.7,47.4,39.7,46.8z M41.2,46.7c0-0.3-0.2-0.5-0.4-0.5
				c-0.2,0-0.4,0.2-0.5,0.4L41.2,46.7z"/>
			<path d="M44.6,45.4l-0.5,0.2l-0.2-0.5l0.7-0.4l0.4-0.1l0.5,2.8l-0.6,0.1L44.6,45.4z"/>
			<path d="M46.7,46.9l0.2-0.5c0.2,0.1,0.4,0.1,0.6,0c0.3-0.1,0.4-0.4,0.3-0.8c-0.1,0.2-0.2,0.3-0.5,0.4c-0.6,0.2-1,0-1.2-0.6l0,0
				c-0.2-0.5,0.1-1.1,0.7-1.3c0.4-0.1,0.6-0.1,0.8,0c0.2,0.1,0.5,0.4,0.6,0.9l0,0c0.3,0.9,0.1,1.6-0.7,1.8
				C47.3,47.1,47,47.1,46.7,46.9z M47.6,45L47.6,45c-0.1-0.2-0.3-0.4-0.6-0.3c-0.3,0.1-0.4,0.3-0.3,0.5l0,0c0.1,0.2,0.3,0.3,0.6,0.3
				C47.6,45.4,47.7,45.2,47.6,45z"/>
			<path d="M49.4,45.5L49.4,45.5c-0.2-0.3-0.1-0.6,0.1-0.8c-0.2,0-0.5-0.1-0.6-0.4l0,0c-0.2-0.4,0-0.9,0.5-1.1
				c0.5-0.3,1-0.1,1.2,0.2l0,0c0.1,0.3,0.1,0.5,0,0.7c0.3,0,0.5,0.1,0.7,0.4l0,0c0.2,0.5,0,0.9-0.6,1.2C50.2,46,49.6,45.9,49.4,45.5
				z M50.1,43.7L50.1,43.7c-0.1-0.2-0.3-0.2-0.5-0.1c-0.2,0.1-0.3,0.3-0.2,0.5l0,0c0.1,0.2,0.3,0.2,0.5,0.1
				C50.2,44.1,50.2,43.9,50.1,43.7z M50.8,44.7L50.8,44.7c-0.1-0.2-0.3-0.2-0.6-0.1c-0.2,0.1-0.4,0.3-0.3,0.5l0,0
				c0.1,0.2,0.3,0.2,0.6,0.1C50.8,45.1,50.8,44.9,50.8,44.7z"/>
			<path d="M52.4,44.4l0-0.6c0.3,0,0.4,0,0.6-0.2c0.3-0.2,0.3-0.5,0.1-0.8c0,0.2-0.1,0.3-0.3,0.5c-0.5,0.4-1,0.3-1.3-0.2l0,0
				c-0.3-0.5-0.2-1,0.3-1.4c0.3-0.2,0.5-0.3,0.8-0.2c0.3,0,0.6,0.2,0.9,0.7l0,0c0.5,0.7,0.6,1.5-0.1,1.9
				C53,44.3,52.7,44.4,52.4,44.4z M52.7,42.2L52.7,42.2C52.5,42,52.3,42,52,42.1c-0.2,0.2-0.3,0.4-0.1,0.6l0,0
				c0.1,0.2,0.4,0.2,0.6,0.1C52.8,42.6,52.8,42.4,52.7,42.2z"/>
			<path d="M55.1,40.4l0.4-0.5l0.5,0.4l-0.4,0.5L55.1,40.4z"/>
		</g>
	</g>
	<g>
		<path class="st2" d="M41.5,41.7c-7.5,0-13.6-6.1-13.6-13.6c0-7.5,6.1-13.6,13.6-13.6c7.5,0,13.6,6.1,13.6,13.6
			C55.1,35.6,49,41.7,41.5,41.7z"/>
		<g>
			<path class="st3" d="M41.5,14.8c7.4,0,13.4,6,13.4,13.4c0,7.4-6,13.4-13.4,13.4c-7.4,0-13.4-6-13.4-13.4
				C28.1,20.8,34.1,14.8,41.5,14.8 M41.5,14.3c-7.7,0-13.9,6.2-13.9,13.9c0,7.7,6.2,13.9,13.9,13.9s13.9-6.2,13.9-13.9
				C55.4,20.5,49.2,14.3,41.5,14.3L41.5,14.3z"/>
		</g>
	</g>
	<g>
		<g>
			<path class="st4" d="M53.1,29.8c0,0.7-1,1.2-2.2,1.2H32.2c-1.2,0-2.2-0.5-2.2-1.2l0,0c0-0.7,1-1.2,2.2-1.2h18.7
				C52.1,28.6,53.1,29.2,53.1,29.8L53.1,29.8z"/>
			<path class="st5" d="M50.8,28.6H32.2c-1.2,0-2.2,0.5-2.2,1.2c0,0.7,1,1.2,2.2,1.2h18.7c1.2,0,2.2-0.5,2.2-1.2
				C53.1,29.2,52.1,28.6,50.8,28.6L50.8,28.6z"/>
		</g>
		<path class="st6" d="M52,31.7L52,31.7c0,2.9-1.9,3.1-4.7,3.1H35.7c-2.8,0-4.7-0.2-4.7-3v-0.1h11.4l6.2,1.7l1.1-1.7H52z"/>
		<g>
			<g>
				<path class="st7" d="M36.9,30.2c-0.6,0-1.2-0.7-1.8-1.4c-0.2-0.2-0.4-0.5-0.6-0.6h7.3c-0.1,0.1-0.1,0.2-0.2,0.3
					c-0.2,0.3-0.4,0.5-0.5,0.5c-0.2,0-0.3,0-0.4-0.1c-0.2-0.2-0.5-0.4-1.1-0.4c-0.6,0-1,0.5-1.3,0.9C38,29.8,37.6,30.2,36.9,30.2z"
					/>
				<path class="st8" d="M37.1,29.1c-0.1,0-0.1,0-0.2,0c0,0-0.1,0-0.1,0H37.1 M52.1,27.1H30.9c-0.4,0-0.8,0.3-0.8,0.6
					c0,0.4,0.3,0.6,0.8,0.6h2.2c0.3,0,0.7,0.5,1.2,1c0.7,0.8,1.5,1.7,2.6,1.7c1.2,0,1.8-0.8,2.3-1.3c0.2-0.2,0.4-0.5,0.6-0.5
					c0.2,0,0.3,0.1,0.4,0.2c0.2,0.2,0.4,0.4,1,0.4c0.7,0,1-0.5,1.3-0.9c0.2-0.3,0.3-0.5,0.5-0.5h9.1c0.4,0,0.8-0.3,0.8-0.6
					C52.9,27.4,52.5,27.1,52.1,27.1L52.1,27.1z"/>
			</g>
			<path class="st2" d="M30.9,27.3h21.2c0.3,0,0.6,0.2,0.6,0.5c0,0.3-0.2,0.5-0.6,0.5c0,0-8.5,0-9.1,0c-0.6,0-0.8,1.5-1.8,1.5
				c-1,0-0.8-0.5-1.4-0.5c-0.6,0-1.1,1.8-2.8,1.8s-2.8-2.7-3.8-2.7c-1,0-2.2,0-2.2,0c-0.3,0-0.6-0.2-0.6-0.5
				C30.4,27.5,30.6,27.3,30.9,27.3 M30.9,26.9c-0.5,0-1,0.4-1,0.8c0,0.5,0.4,0.8,1,0.8h2.2c0.2,0,0.7,0.6,1,0.9
				c0.7,0.8,1.6,1.8,2.8,1.8c1.3,0,2-0.8,2.4-1.4c0.1-0.2,0.3-0.4,0.4-0.4c0.1,0,0.1,0,0.2,0.1c0.2,0.2,0.5,0.4,1.2,0.4
				c0.8,0,1.2-0.6,1.5-1c0.1-0.1,0.3-0.4,0.3-0.4h9.1c0.5,0,1-0.4,1-0.8c0-0.5-0.4-0.8-1-0.8H30.9L30.9,26.9z"/>
		</g>
		<g>
			<path class="st5" d="M50.7,29.4c0-0.1-0.1-0.2-0.2-0.2c-0.1,0-0.2,0.1-0.2,0.2c0,0.1,0.1,0.2,0.2,0.2
				C50.6,29.5,50.7,29.5,50.7,29.4z"/>
			<path class="st5" d="M49.5,30c0-0.2-0.2-0.5-0.5-0.5c-0.2,0-0.5,0.2-0.5,0.5c0,0.2,0.2,0.5,0.5,0.5C49.3,30.4,49.5,30.2,49.5,30z
				"/>
			<path class="st5" d="M50.3,30.3c0-0.1-0.1-0.3-0.3-0.3c-0.1,0-0.3,0.1-0.3,0.3c0,0.1,0.1,0.3,0.3,0.3
				C50.2,30.5,50.3,30.4,50.3,30.3z"/>
		</g>
		<g>
			<path class="st5" d="M32.7,30.4c0,0.1,0.1,0.2,0.2,0.2c0.1,0,0.2-0.1,0.2-0.2s-0.1-0.2-0.2-0.2C32.8,30.2,32.7,30.3,32.7,30.4z"
				/>
			<path class="st5" d="M32.5,29.5c0,0.1,0.1,0.2,0.2,0.2c0.1,0,0.2-0.1,0.2-0.2s-0.1-0.2-0.2-0.2C32.6,29.3,32.5,29.4,32.5,29.5z"
				/>
			<path class="st5" d="M32.1,30c0,0.1,0.1,0.2,0.2,0.2c0.1,0,0.2-0.1,0.2-0.2c0-0.1-0.1-0.2-0.2-0.2C32.2,29.8,32.1,29.9,32.1,30z"
				/>
		</g>
		<path class="st9" d="M50.3,23.9c-0.4,0-0.8-0.2-1-0.4c-0.3,0.3-0.9,0.5-1.4,0.4c-0.7-0.1-1.3-0.5-1.4-1C46.2,23,45.9,23,45.6,23
			c-0.9-0.1-1.5-0.7-1.4-1.3c0-0.1,0.1-0.2,0.1-0.3c-0.5-0.2-0.9-0.7-0.8-1.2c0-0.2,0.2-0.5,0.4-0.6c-0.8-0.1-1.6-0.1-2.4-0.1
			c-5.8,0-10.5,2.2-10.5,5h21c0-0.4-0.1-0.7-0.2-1C51.4,23.8,50.9,24,50.3,23.9z"/>
		<path class="st10" d="M34.1,22.4c0,0.1-0.1,0.2-0.2,0.2c-0.1,0-0.2-0.1-0.2-0.2c0-0.1,0.1-0.2,0.2-0.2
			C34,22.2,34.1,22.2,34.1,22.4z"/>
		<path class="st10" d="M35.7,22c0,0.2-0.2,0.4-0.4,0.4c-0.2,0-0.4-0.2-0.4-0.4c0-0.2,0.2-0.4,0.4-0.4C35.6,21.6,35.7,21.8,35.7,22z
			"/>
		<path class="st10" d="M33.3,23.2c0,0.2-0.2,0.4-0.4,0.4c-0.2,0-0.4-0.2-0.4-0.4c0-0.2,0.2-0.4,0.4-0.4
			C33.1,22.8,33.3,22.9,33.3,23.2z"/>
		<path class="st10" d="M42.3,20.5c0,0.2-0.2,0.4-0.4,0.4c-0.2,0-0.4-0.2-0.4-0.4c0-0.2,0.2-0.4,0.4-0.4
			C42.1,20.1,42.3,20.3,42.3,20.5z"/>
		<path class="st10" d="M33.1,33.4c0.1-0.1,0.2-0.1,0.3,0c0.1,0.1,0.1,0.2,0,0.3c-0.1,0.1-0.2,0.1-0.3,0C33,33.6,33,33.4,33.1,33.4z
			"/>
		<path class="st10" d="M31.8,32.3c0.2-0.1,0.4-0.1,0.6,0c0.1,0.2,0.1,0.4,0,0.6c-0.2,0.1-0.4,0.1-0.6,0
			C31.6,32.7,31.6,32.5,31.8,32.3z"/>
		<path class="st10" d="M34.3,33.5c0.2-0.1,0.4-0.1,0.6,0c0.1,0.2,0.1,0.4,0,0.6c-0.2,0.1-0.4,0.1-0.6,0
			C34.1,33.9,34.1,33.6,34.3,33.5z"/>
		<g>
			<rect x="31" y="25.1" class="st11" width="6.6" height="1.6"/>
			<rect x="38.2" y="25.1" class="st11" width="6.6" height="1.6"/>
			<rect x="45.4" y="25.1" class="st11" width="6.6" height="1.6"/>
		</g>
	</g>
</g>
</svg>
