<svg id="Layer_1" data-name="Layer 1" xmlns="http://www.w3.org/2000/svg" viewBox="0 0 600 600"><defs><style>.cls-1{fill:#fff;stroke:#faaf41;stroke-width:10px;}.cls-1,.cls-10,.cls-12,.cls-2,.cls-7{stroke-miterlimit:10;}.cls-2{stroke:#231f20;}.cls-3{fill:#f9e12f;}.cls-10,.cls-4,.cls-7{fill:#faaf40;}.cls-5{fill:#d8b59a;}.cls-6{fill:#716558;}.cls-7{stroke:#f05a2a;}.cls-10,.cls-7{stroke-width:6px;}.cls-8{fill:#009345;}.cls-9{fill:#006838;}.cls-10{stroke:#f05a28;}.cls-11{fill:#a87c4f;}.cls-12{fill:#ee4036;stroke:#be1e2d;stroke-width:4px;}</style></defs><title>mascada-logo01</title><path class="cls-1" d="M573.42,303.35c0-153-124-277-276.95-277s-276.94,124-276.94,277,124,276.94,276.94,276.94S573.42,456.3,573.42,303.35Z"/><path class="cls-2" d="M50.52,282.71l2.09-11.84,43.79,7.74,4.73-26.82,11,1.93-6.83,38.65Z"/><path class="cls-2" d="M74.68,198.89,79.76,189l60.48,4.8L134.49,205l-13.37-1.26-10.57,20.54,8.8,10.14-5.6,10.89Zm34.88,3.72-19.35-1.79,12.71,14.7Z"/><path class="cls-2" d="M136.81,117l10.72-7.27,25.07,11.39L171.3,93.6,182,86.33l31.19,46-9.88,6.7L183,109l.59,28.28-.25.18-25.79-10.92,20.23,29.84L168,163Z"/><path class="cls-2" d="M233.62,67.28l10.77-2.6,35.9,48.91-12.21,3L260.3,105.6,237.84,111l-1.92,13.29L224,127.19Zm20,28.83L242.3,80.29l-2.82,19.23Z"/><path class="cls-2" d="M288.89,105.94l7.71-8.11c4.6,4.48,9.54,7.47,15.77,7.92,4.9.36,8-1.4,8.24-4.65v-.16c.23-3.09-1.52-4.81-10.45-7.85-10.77-3.65-17.62-7.26-16.82-18.27l0-.16c.73-10,9.16-16.12,20.29-15.31a31.25,31.25,0,0,1,19.71,8.53l-6.9,8.73c-4.57-3.76-9.17-6.17-13.76-6.5s-7.16,1.62-7.36,4.32v.16c-.26,3.64,2,5,11.22,8.14,10.84,3.74,16.77,8.23,16.06,17.89v.16c-.81,11-9.51,16.58-21.26,15.72A34.37,34.37,0,0,1,288.89,105.94Z"/><path class="cls-2" d="M353.49,93.67l.06-.15c5.85-14.68,21.51-22.37,37.1-16.16,9.56,3.81,14,9.34,16.83,15.94l-10.43,5.5c-2.47-5.17-5.57-9-10.65-11-8.55-3.41-17.59,1.36-21.12,10.21l-.06.15c-3.52,8.85-.45,18.62,8.25,22.09,5.8,2.31,10.29,1.37,15.75-.73l4.19,10.13c-7.48,3.6-14.69,4.83-24.47.93C354,124.64,347.59,108.49,353.49,93.67Z"/><path class="cls-2" d="M452.06,114.92l8.4,7.22-18.74,57.71-9.53-8.19L436.53,159,419,143.9l-11.92,6.2-9.29-8ZM440.32,148l6.24-18.4-17.25,8.94Z"/><path class="cls-2" d="M496.89,161.76l10.74,18.39c8.65,14.83,4.28,31.11-9.23,39l-.14.08c-13.51,7.88-30,3.76-38.63-11.06l-10.74-18.4Zm-27.73,40.85c5,8.49,14.13,10.81,22.63,5.85l.14-.08c8.5-5,11.13-14.17,6.17-22.66l-4.68-8-28.94,16.89Z"/><path class="cls-2" d="M536.56,249.69l2.38,10.82-49.66,34.86-2.7-12.27,11.11-7.55L492.74,253l-13.25-2.2-2.62-12Zm-29.24,19.36,16.05-10.95-19.16-3.23Z"/><path class="cls-2" d="M122.5,445.24l5.16,5.82-5.85,5.18-5.16-5.82Z"/><path class="cls-2" d="M145.08,476.67l.06-.08c5.24-7,12.6-7.46,17.48-3.81a9.82,9.82,0,0,1,4.07,7.93l7.73-10.31,5.84,4.37L158.89,503.3l-5.83-4.38,2.25-3a9.43,9.43,0,0,1-9-1.41C141.55,490.92,139.85,483.66,145.08,476.67ZM161,488.55l.05-.08c2.61-3.48,2.07-7.48-.66-9.52s-6.73-1.5-9.36,2l-.06.08c-2.6,3.48-2,7.51.7,9.55S158.34,492,161,488.55Z"/><path class="cls-2" d="M176.31,499.05l.05-.08c3.49-6.61,11-9.6,17.61-6.1,7.59,4,7.9,11.85,4.44,18.41-.28.52-.64,1.1-1,1.68l-15.83-8.36a6,6,0,0,0,3.16,7.47,8.4,8.4,0,0,0,6.78.54l1.93,5.28a12.77,12.77,0,0,1-11.57-.6C175,513.68,172.57,506.13,176.31,499.05Zm17.07,6.54c1.17-3.14.52-6-2.19-7.46s-5.44-.39-7.53,2.32Z"/><path class="cls-2" d="M204.07,523.45l4.59-3.54a14.3,14.3,0,0,0,6.57,5.69c2,.72,3.15.31,3.55-.8l0-.09c.55-1.51-1.61-2.86-4-4.65-3-2.23-6.28-5.22-4.56-10l0-.09c1.81-5,6.79-6.38,11.67-4.62a17.48,17.48,0,0,1,8,6.1l-4.36,3.88a15.09,15.09,0,0,0-5.71-4.66c-1.68-.6-2.8-.17-3.15.79l0,.09c-.5,1.38,1.58,2.85,3.86,4.72,3,2.36,6.31,5.43,4.69,9.94l0,.09c-2,5.46-6.88,6.5-12.12,4.61A17.83,17.83,0,0,1,204.07,523.45Z"/><path class="cls-2" d="M236.64,524.53l0-.09c1.72-8.57,8.16-12.16,14.14-11a9.84,9.84,0,0,1,7.09,5.41l2.53-12.64,7.16,1.43-7,35-7.15-1.44.74-3.68a9.44,9.44,0,0,1-8.7,2.59C239.58,538.92,234.92,533.1,236.64,524.53Zm19.43,3.9,0-.1c.86-4.26-1.35-7.64-4.69-8.31s-6.72,1.54-7.59,5.85l0,.1c-.85,4.26,1.41,7.65,4.75,8.32S255.22,532.69,256.07,528.43Z"/><path class="cls-2" d="M274.5,531.27v-.1c.3-7.46,5.76-13.41,13.25-13.12,8.58.34,12.25,7.28,12,14.69,0,.59-.1,1.27-.17,2l-17.89-.7a6,6,0,0,0,6.08,5.37,8.32,8.32,0,0,0,6.34-2.44l4,3.92a12.78,12.78,0,0,1-10.69,4.47C279.68,545,274.19,539.27,274.5,531.27Zm18.22-1.49c-.31-3.33-2.14-5.65-5.21-5.77s-5.07,2-5.78,5.34Z"/><path class="cls-2" d="M333.59,515l-5.5,2.46-2.6-5.78,9-4.58,5-.88,6,33.88-7.18,1.28Z"/><path class="cls-2" d="M359.68,533.42l1.93-6.63c2.95,1.14,5.19,1.39,7.89.51,3.92-1.27,5-5,4.08-9.48a10.09,10.09,0,0,1-5.76,4.33c-6.93,2.25-12.67-.19-14.82-6.79l0-.09c-2.13-6.55,1.28-13,8.49-15.33,4.29-1.4,7.15-1.15,10.37.53,3,1.58,5.69,4.62,7.77,11l0,.09c3.42,10.54.88,19.32-8.2,22.27A16,16,0,0,1,359.68,533.42Zm11.26-24.19,0-.09c-.94-2.88-3.71-4.29-7.23-3.15s-4.77,3.81-3.83,6.69l0,.09c.94,2.88,3.68,4.19,7.15,3.07S371.84,512,370.94,509.23Z"/><path class="cls-2" d="M392.94,515.4l-.05-.09c-1.89-3.69-1.34-6.72,1.06-9.81a8.19,8.19,0,0,1-7.21-4.7l0-.09c-2.38-4.65-.09-10.49,6.22-13.73s12.38-1.73,14.78,3l.05.08a8.17,8.17,0,0,1-.39,8.6c3.85.05,6.65,1.09,8.5,4.69l0,.09c2.9,5.65-.32,11.47-6.94,14.86S395.65,520.7,392.94,515.4ZM401.89,494l0-.09c-1-1.87-3.41-2.75-6.1-1.37s-3.42,3.84-2.46,5.71l0,.09c1.09,2.12,3.58,2.88,6.19,1.54S403,496.09,401.89,494Zm7.47,12.35,0-.08c-1.2-2.35-4.1-2.62-7.08-1.09s-4.46,4-3.25,6.39l0,.08c1.07,2.09,3.86,2.8,7.1,1.13S410.45,508.44,409.36,506.31Z"/><path class="cls-2" d="M429.74,502l-.23-6.91c3.16.18,5.37-.29,7.66-2,3.33-2.43,3.25-6.3.93-10.29a10.05,10.05,0,0,1-4.13,5.91c-5.89,4.3-12.11,3.76-16.19-1.84l-.06-.08c-4.06-5.56-2.82-12.75,3.3-17.21,3.65-2.66,6.44-3.31,10-2.72,3.38.56,6.84,2.62,10.82,8.07l.05.08c6.54,9,6.85,18.09-.87,23.72A16.1,16.1,0,0,1,429.74,502Zm3.18-26.5-.06-.08c-1.78-2.44-4.86-2.92-7.85-.74s-3.34,5.1-1.56,7.55l.06.07c1.78,2.45,4.8,2.85,7.75.7S434.65,477.84,432.92,475.47Z"/><path class="cls-2" d="M463,453.47l5.24-5.75,5.77,5.25-5.23,5.75Z"/><path class="cls-3" d="M296.47,468.37c-91,0-165-74-165-165s74-165,165-165,165,74,165,165S387.47,468.37,296.47,468.37Z"/><path class="cls-4" d="M296.47,142.83a160.52,160.52,0,1,1-113.5,47,159.47,159.47,0,0,1,113.5-47m0-9A169.52,169.52,0,1,0,466,303.35,169.52,169.52,0,0,0,296.47,133.83Z"/><path class="cls-5" d="M182.38,336.59c-13.35,0-24.63-5.63-24.63-12.29S169,312,182.38,312H410.57c13.36,0,24.64,5.64,24.64,12.3s-11.28,12.29-24.64,12.29Z"/><path class="cls-6" d="M410.57,314.51c12.47,0,22.14,5.26,22.14,9.79s-9.67,9.79-22.14,9.79H182.38c-12.46,0-22.13-5.26-22.13-9.79s9.67-9.79,22.13-9.79H410.57m0-5H182.38c-15,0-27.13,6.62-27.13,14.79s12.15,14.79,27.13,14.79H410.57c15,0,27.14-6.62,27.14-14.79s-12.15-14.79-27.14-14.79Z"/><path class="cls-7" d="M425.23,346.56v.87c0,34.84-23,36.79-57.81,36.79H225.53c-34.83,0-57.81-2-57.81-36.79v-.87H306.54l76.21,21,13.13-21Z"/><path class="cls-8" d="M240.42,339.35c-12.89,0-22.45-11.12-30.89-20.93-5.62-6.52-10.89-12.64-15.09-12.64H167c-4.61,0-8.37-3.11-8.37-6.92s3.76-6.92,8.37-6.92H425.93c4.61,0,8.37,3.1,8.37,6.92s-3.76,6.92-8.37,6.92H314.43c-2.55,0-4.76,3.29-7.1,6.78-3.29,4.88-7.38,10.95-15,10.95-7.41,0-10-2.37-12-4.27-1.51-1.41-2.51-2.33-5.28-2.33-2,0-4.29,2.63-7.61,6.64C261.89,330.23,254.34,339.35,240.42,339.35Z"/><path class="cls-9" d="M425.93,292.94c4.06,0,7.37,2.65,7.37,5.92s-3.31,5.92-7.37,5.92H314.43c-3.08,0-5.44,3.51-7.93,7.22-3.32,4.93-7.08,10.51-14.18,10.51s-9.42-2.22-11.34-4c-1.56-1.45-2.79-2.59-6-2.59-2.41,0-4.77,2.64-8.4,7-5.68,6.87-12.75,15.41-26.2,15.41-12.43,0-21.83-10.93-30.16-20.61-5.74-6.67-11.16-13-15.82-13H167c-4.06,0-7.37-2.66-7.37-5.92s3.31-5.92,7.37-5.92H425.93m0-2H167c-5.17,0-9.37,3.55-9.37,7.92s4.2,7.92,9.37,7.92h27.42c3.75,0,9.12,6.25,14.33,12.3,8.58,10,18.31,21.27,31.65,21.27,14.39,0,22.11-9.32,27.74-16.14,2.45-2.95,5.22-6.3,6.86-6.3,2.38,0,3.12.68,4.6,2.06,2.06,1.91,4.89,4.54,12.7,4.54,8.16,0,12.42-6.32,15.84-11.39,2.09-3.12,4.26-6.34,6.27-6.34h111.5c5.17,0,9.37-3.56,9.37-7.92s-4.2-7.92-9.37-7.92Z"/><path class="cls-3" d="M167,293.2H425.93c3.73,0,6.74,2.53,6.74,5.66s-3,5.66-6.74,5.66H314.43c-7.88,0-10.07,17.73-22.11,17.73s-9.42-6.6-17.3-6.6-13.58,22.44-34.6,22.44-34.16-33.57-46-33.57H167c-3.73,0-6.74-2.54-6.74-5.66s3-5.66,6.74-5.66m0-4.53c-6.61,0-12,4.57-12,10.19S160.41,309,167,309h27.42c2.42,0,8.55,7.13,12.21,11.39,8.52,9.88,19.11,22.19,33.77,22.19,15.75,0,24.25-10.29,29.88-17.1,1.66-2,3.91-4.71,5.06-5.34.93,0,1.13.21,2.33,1.32,2.87,2.67,6.37,5.27,14.63,5.27,9.68,0,14.55-7.24,18.11-12.52,1.17-1.75,3.12-4.64,4.19-5.21H425.93c6.61,0,12-4.57,12-10.18s-5.39-10.19-12-10.19Z"/><path class="cls-6" d="M408.25,318.31a2.28,2.28,0,1,0-2.27,2.28A2.28,2.28,0,0,0,408.25,318.31Z"/><path class="cls-6" d="M393.68,326.11a5.53,5.53,0,1,0-5.52,5.52A5.52,5.52,0,0,0,393.68,326.11Z"/><path class="cls-6" d="M404.25,329.31a3.2,3.2,0,1,0-3.2,3.19A3.2,3.2,0,0,0,404.25,329.31Z"/><path class="cls-6" d="M189.2,331a2.08,2.08,0,1,0,2.08-2.08A2.09,2.09,0,0,0,189.2,331Z"/><path class="cls-6" d="M186.28,320.44a2.92,2.92,0,1,0,2.92-2.92A2.91,2.91,0,0,0,186.28,320.44Z"/><path class="cls-6" d="M181.48,326.15a2.75,2.75,0,1,0,2.74-2.74A2.75,2.75,0,0,0,181.48,326.15Z"/><path class="cls-10" d="M403.37,251.81a22.24,22.24,0,0,1-12.67-5.1c-4.15,3.61-10.6,5.68-17.46,5.06-8.85-.8-15.51-5.8-16.95-11.94a25.74,25.74,0,0,1-9.48.94c-10.81-1-18.49-8.19-17.17-16.12A11.72,11.72,0,0,1,331,221c-6.7-2.8-10.81-8.36-9.82-14.33a13,13,0,0,1,4.72-7.76,264.56,264.56,0,0,0-29.45-1.64c-70.75,0-128.09,27.42-128.09,61.24H424.57a31.21,31.21,0,0,0-2.79-12.72C417.73,250,410.82,252.47,403.37,251.81Z"/><path class="cls-11" d="M205.74,232.74a2.44,2.44,0,1,1-2.44-2.44A2.44,2.44,0,0,1,205.74,232.74Z"/><path class="cls-11" d="M225.88,228.6a4.88,4.88,0,1,1-4.88-4.88A4.89,4.89,0,0,1,225.88,228.6Z"/><path class="cls-11" d="M196,242.64a4.88,4.88,0,1,1-4.88-4.89A4.89,4.89,0,0,1,196,242.64Z"/><path class="cls-11" d="M306.45,209.78a5,5,0,1,1-5-5A5,5,0,0,1,306.45,209.78Z"/><path class="cls-11" d="M194,367.47a2.45,2.45,0,1,1-.3,3.44A2.44,2.44,0,0,1,194,367.47Z"/><path class="cls-11" d="M177.84,354.72a4.88,4.88,0,1,1-.6,6.88A4.88,4.88,0,0,1,177.84,354.72Z"/><path class="cls-11" d="M207.82,368.59a4.88,4.88,0,1,1-.6,6.88A4.88,4.88,0,0,1,207.82,368.59Z"/><rect class="cls-12" x="168.38" y="266.63" width="81.15" height="19.6"/><rect class="cls-12" x="255.9" y="266.63" width="81.15" height="19.6"/><rect class="cls-12" x="343.42" y="266.63" width="81.15" height="19.6"/></svg>